<?xml version="1.0" encoding="UTF-8"?>
<svg xmlns="http://www.w3.org/2000/svg" viewBox="0 0 1895.895 911.097">
  <defs>
    <style>
      .cls-1 {
        stroke-dasharray: 11.013 11.013;
      }

      .cls-1, .cls-2, .cls-3, .cls-4, .cls-5, .cls-6, .cls-7, .cls-8, .cls-9, .cls-10, .cls-11, .cls-12, .cls-13, .cls-14, .cls-15, .cls-16, .cls-17, .cls-18, .cls-19, .cls-20, .cls-21, .cls-22, .cls-23, .cls-24, .cls-25, .cls-26, .cls-27, .cls-28 {
        stroke-miterlimit: 10;
      }

      .cls-1, .cls-2, .cls-3, .cls-4, .cls-6, .cls-7, .cls-8, .cls-9, .cls-10, .cls-11, .cls-12, .cls-13, .cls-14, .cls-15, .cls-16, .cls-17, .cls-18, .cls-19, .cls-20, .cls-21, .cls-22, .cls-23, .cls-24, .cls-25, .cls-26, .cls-27, .cls-28 {
        fill: none;
      }

      .cls-1, .cls-3, .cls-4, .cls-6, .cls-7, .cls-9, .cls-10, .cls-11, .cls-12, .cls-13, .cls-15, .cls-16, .cls-17, .cls-18, .cls-19, .cls-21, .cls-22, .cls-26 {
        stroke: #1c58af;
      }

      .cls-29 {
        font-size: 15.303px;
      }

      .cls-29, .cls-30, .cls-31, .cls-32, .cls-33, .cls-34, .cls-35, .cls-36, .cls-37, .cls-38, .cls-39, .cls-40, .cls-41, .cls-42, .cls-43, .cls-44, .cls-45, .cls-46, .cls-47, .cls-48, .cls-49, .cls-50, .cls-51, .cls-52, .cls-53, .cls-54, .cls-55, .cls-56, .cls-57, .cls-58 {
        font-family: CascadiaCode-Roman, 'Cascadia Code';
        font-variation-settings: 'wght' 400;
      }

      .cls-2, .cls-5, .cls-8, .cls-14, .cls-20, .cls-23, .cls-24, .cls-25, .cls-27, .cls-28 {
        stroke: #000;
      }

      .cls-30 {
        font-size: 11.934px;
      }

      .cls-31 {
        font-size: 8.231px;
      }

      .cls-32 {
        font-size: 20.127px;
      }

      .cls-33 {
        font-size: 9.319px;
      }

      .cls-34 {
        font-size: 9.233px;
      }

      .cls-35 {
        font-size: 7.745px;
      }

      .cls-59 {
        letter-spacing: -.516em;
      }

      .cls-60, .cls-5 {
        fill: #fff;
      }

      .cls-36 {
        font-size: 25.041px;
      }

      .cls-4 {
        stroke-dasharray: 11.952 11.952;
      }

      .cls-37 {
        font-size: 9.662px;
      }

      .cls-6 {
        stroke-dasharray: 11.827 11.827;
      }

      .cls-7 {
        stroke-dasharray: 11.982 11.982;
      }

      .cls-38 {
        font-size: 9.35px;
      }

      .cls-39 {
        font-size: 16.758px;
      }

      .cls-40 {
        font-size: 19.999px;
      }

      .cls-41 {
        font-size: 21.508px;
      }

      .cls-8 {
        stroke-dasharray: 10.655 10.655;
      }

      .cls-9 {
        stroke-dasharray: 11.993 11.993;
      }

      .cls-10 {
        stroke-dasharray: 12.95 12.95;
      }

      .cls-11 {
        stroke-dasharray: 11.967 11.967;
      }

      .cls-42 {
        font-size: 9.388px;
      }

      .cls-61 {
        fill: #fffff1;
        font-family: MyriadPro-Regular, 'Myriad Pro';
        font-size: 14.011px;
      }

      .cls-43 {
        font-size: 14.688px;
      }

      .cls-12 {
        stroke-dasharray: 11.85 11.85;
      }

      .cls-13 {
        stroke-dasharray: 12.448 12.448;
      }

      .cls-44 {
        font-size: 13.901px;
      }

      .cls-45 {
        font-size: 13.845px;
      }

      .cls-46 {
        font-size: 6.536px;
      }

      .cls-47 {
        font-size: 8.9px;
      }

      .cls-14 {
        stroke-dasharray: 7.445;
      }

      .cls-15 {
        stroke-dasharray: 10.844 10.844;
      }

      .cls-16 {
        stroke-dasharray: 12.002 12.002;
      }

      .cls-17 {
        stroke-dasharray: 12;
      }

      .cls-18 {
        stroke-dasharray: 11.719 11.719;
      }

      .cls-48 {
        font-size: 8.587px;
      }

      .cls-48, .cls-56, .cls-57 {
        fill: #1c58af;
      }

      .cls-49 {
        font-size: 8.945px;
      }

      .cls-19 {
        stroke-dasharray: 11.893 11.893;
      }

      .cls-50 {
        font-size: 11.359px;
      }

      .cls-20 {
        stroke-dasharray: 10.919 10.919;
      }

      .cls-21 {
        stroke-dasharray: 12.125 12.125;
      }

      .cls-22 {
        stroke-dasharray: 11.439 11.439;
      }

      .cls-23 {
        stroke-dasharray: 13.033 13.033;
      }

      .cls-51 {
        font-size: 15.475px;
      }

      .cls-24 {
        stroke-dasharray: 8.447;
      }

      .cls-25 {
        stroke-dasharray: 11.965 11.965;
      }

      .cls-62 {
        font-family: FranklinGothic-Medium, 'Franklin Gothic Medium';
        font-size: 7.767px;
        font-weight: 500;
      }

      .cls-52 {
        font-size: 8.81px;
      }

      .cls-53 {
        font-size: 21.274px;
      }

      .cls-26 {
        stroke-dasharray: 12.321 12.321;
      }

      .cls-54 {
        font-size: 9.103px;
      }

      .cls-55 {
        font-size: 9.458px;
      }

      .cls-56 {
        font-size: 9.55px;
      }

      .cls-27 {
        stroke-dasharray: 9.795 9.795;
      }

      .cls-28 {
        stroke-dasharray: 11.958 11.958;
      }

      .cls-57 {
        font-size: 6.693px;
      }

      .cls-58 {
        font-size: 10.101px;
      }
    </style>
  </defs>
  <g id="_Слой_1" data-name="Слой 1">
    <path class="cls-5" d="M1543.256,292.248c1.433-2.134,4.715-.678,10.379,1.668,4.439,1.876,8.825,3.69,13.374,5.574,31.832,13.24,67.389,27.257,99.517,40.524,5.868,2.271,5.706,6.657,5.757,13.364.016,6.074.018,12.035.014,18.436.002,18.104-.002,38.198,0,56.251-.003,10.921.006,20.574-.005,27.152-.26,6.059.622,10.21-2.896,13.192-26.032,11.97-90.332,35.359-119.224,47.159-2.388.848-4.987,2.041-6.852.856-1.346-1.344-1.463-3.528-1.647-5.801-.13-2.302-.183-4.91-.187-7.448.007-13.599-.058-35.42.02-50.207.035-2.863.151-5.968.645-8.537,1.732-9.785,12.312-11.478,20.726-14.844,17.881-5.967,22.074-10.061,21.973-29.869.07-9.389-1.071-19.908-8.971-25.643-8.034-6.384-19.594-8.53-26.846-14.91-5.523-5.299-4.973-12.759-5.532-20.47-.411-10.072-1.02-24.354-1.346-34.04-.179-6.486-.09-10.655,1.068-12.356l.033-.049Z"/>
    <text class="cls-41" transform="translate(1606.411 398.796)"><tspan x="0" y="0">ALU</tspan></text>
    <rect class="cls-5" x="1611.868" y="160.019" width="134.226" height="59.913" rx="17.393" ry="17.393"/>
    <text class="cls-43" transform="translate(1629.402 179.58)"><tspan x="0" y="0">SR</tspan></text>
    <g>
      <path class="cls-60" d="M1653.486,189.902h9.848c2.683,0,4.861,2.178,4.861,4.861v6.629c0,2.683-2.178,4.861-4.861,4.861h-9.847c-2.684,0-4.862-2.179-4.862-4.862v-6.628c0-2.683,2.178-4.861,4.861-4.861Z"/>
      <path d="M1663.334,190.402c2.405,0,4.362,1.957,4.362,4.362v6.628c0,2.405-1.957,4.362-4.362,4.362h-9.848c-2.405,0-4.362-1.957-4.362-4.362v-6.628c0-2.405,1.957-4.362,4.362-4.362h9.848M1663.334,189.402h-9.848c-2.961,0-5.362,2.401-5.362,5.362v6.628c0,2.961,2.401,5.362,5.362,5.362h9.848c2.961,0,5.362-2.401,5.362-5.362v-6.628c0-2.961-2.401-5.362-5.362-5.362h0Z"/>
    </g>
    <g>
      <path class="cls-60" d="M1674.057,189.902h9.848c2.683,0,4.861,2.178,4.861,4.861v6.629c0,2.683-2.178,4.861-4.861,4.861h-9.848c-2.684,0-4.862-2.179-4.862-4.862v-6.627c0-2.683,2.179-4.862,4.862-4.862Z"/>
      <path d="M1683.905,190.402c2.405,0,4.362,1.957,4.362,4.362v6.628c0,2.405-1.957,4.362-4.362,4.362h-9.848c-2.405,0-4.362-1.957-4.362-4.362v-6.628c0-2.405,1.957-4.362,4.362-4.362h9.848M1683.905,189.402h-9.848c-2.961,0-5.362,2.401-5.362,5.362v6.628c0,2.961,2.401,5.362,5.362,5.362h9.848c2.961,0,5.362-2.401,5.362-5.362v-6.628c0-2.961-2.401-5.362-5.362-5.362h0Z"/>
    </g>
    <g>
      <rect class="cls-60" x="1628.053" y="189.902" width="19.571" height="16.352" rx="4.862" ry="4.862"/>
      <path d="M1642.763,190.402c2.405,0,4.362,1.957,4.362,4.362v6.628c0,2.405-1.957,4.362-4.362,4.362h-9.848c-2.405,0-4.362-1.957-4.362-4.362v-6.628c0-2.405,1.957-4.362,4.362-4.362h9.848M1642.763,189.402h-9.848c-2.961,0-5.362,2.401-5.362,5.362v6.628c0,2.961,2.401,5.362,5.362,5.362h9.848c2.961,0,5.362-2.401,5.362-5.362v-6.628c0-2.961-2.401-5.362-5.362-5.362h0Z"/>
    </g>
    <g>
      <path class="cls-60" d="M1694.2,189.902h9.847c2.683,0,4.861,2.178,4.861,4.861v6.629c0,2.683-2.178,4.861-4.861,4.861h-9.848c-2.683,0-4.861-2.178-4.861-4.861v-6.628c0-2.684,2.179-4.862,4.862-4.862Z"/>
      <path d="M1704.047,190.402c2.405,0,4.362,1.957,4.362,4.362v6.628c0,2.405-1.957,4.362-4.362,4.362h-9.848c-2.405,0-4.362-1.957-4.362-4.362v-6.628c0-2.405,1.957-4.362,4.362-4.362h9.848M1704.047,189.402h-9.848c-2.961,0-5.362,2.401-5.362,5.362v6.628c0,2.961,2.401,5.362,5.362,5.362h9.848c2.961,0,5.362-2.401,5.362-5.362v-6.628c0-2.961-2.401-5.362-5.362-5.362h0Z"/>
    </g>
    <text class="cls-62" transform="translate(1633.335 200.361)"><tspan x="0" y="0">Z</tspan></text>
    <text class="cls-62" transform="translate(1655.47 200.471)"><tspan x="0" y="0">N</tspan></text>
    <text class="cls-62" transform="translate(1677.753 200.271)"><tspan x="0" y="0">V</tspan></text>
    <text class="cls-62" transform="translate(1696.883 200.271)"><tspan x="0" y="0">C</tspan></text>
    <rect class="cls-5" x="137.74" y="328.585" width="81.564" height="65.29" rx="12.355" ry="12.355"/>
    <text class="cls-36" transform="translate(152.04 357.828)"><tspan x="0" y="0">PC</tspan></text>
    <text class="cls-61" transform="translate(630.536 890.781)"><tspan x="0" y="0">flags/CU</tspan></text>
    <rect class="cls-5" x="763.433" y="319.248" width="81.564" height="56.028" rx="12.355" ry="12.355"/>
    <text class="cls-40" transform="translate(777.541 346.711)"><tspan x="0" y="0">IR</tspan></text>
    <rect class="cls-5" x="970.058" y="586.944" width="81.564" height="58.787" rx="12.355" ry="12.355"/>
    <text class="cls-36" transform="translate(987.805 618.485)"><tspan x="0" y="0">EA</tspan></text>
    <line class="cls-2" x1="1341.437" y1="335.259" x2="1457.16" y2="335.259"/>
    <line class="cls-2" x1="700.414" y1="349.586" x2="763.433" y2="349.586"/>
    <line class="cls-2" x1="804.215" y1="319.248" x2="804.215" y2="135.549"/>
    <line class="cls-2" x1="889.781" y1="345.054" x2="934.278" y2="345.054"/>
    <line class="cls-2" x1="1443.602" y1="515.537" x2="1443.602" y2="446.717"/>
    <line class="cls-2" x1="1443.602" y1="515.066" x2="1472.608" y2="499"/>
    <line class="cls-2" x1="1443.602" y1="446.4" x2="1472.288" y2="464.8"/>
    <line class="cls-2" x1="1472.288" y1="464.8" x2="1472.288" y2="499.546"/>
    <line class="cls-2" x1="1472.288" y1="485.523" x2="1542.257" y2="485.523"/>
    <line class="cls-2" x1="1051.623" y1="616.338" x2="1406.686" y2="616.338"/>
    <line class="cls-2" x1="1443.602" y1="503.697" x2="1406.686" y2="503.697"/>
    <line class="cls-2" x1="1406.686" y1="616.338" x2="1406.686" y2="503.456"/>
    <text class="cls-29" transform="translate(1093.694 609.681)"><tspan x="0" y="0">SignImm</tspan></text>
    <line class="cls-2" x1="1341.193" y1="398.001" x2="1421.14" y2="398.001"/>
    <line class="cls-2" x1="1443.602" y1="457.617" x2="1421.671" y2="457.617"/>
    <line class="cls-2" x1="1421.14" y1="398.001" x2="1421.14" y2="458.073"/>
    <rect class="cls-5" x="1717.379" y="383.891" width="81.564" height="48.791" rx="12.355" ry="12.355"/>
    <text class="cls-32" transform="translate(1740.998 411.809)"><tspan x="0" y="0">RES</tspan></text>
    <line class="cls-2" x1="1672.298" y1="404.065" x2="1717.379" y2="404.065"/>
    <line class="cls-2" x1="1798.944" y1="404.065" x2="1895.395" y2="404.065"/>
    <line class="cls-2" x1="281.14" y1="383.673" x2="281.14" y2="332.22"/>
    <line class="cls-2" x1="281.14" y1="383.321" x2="302.826" y2="371.309"/>
    <line class="cls-2" x1="281.14" y1="331.983" x2="302.587" y2="345.739"/>
    <line class="cls-2" x1="302.587" y1="345.739" x2="302.587" y2="371.717"/>
    <line class="cls-2" x1="219.305" y1="345.739" x2="281.14" y2="345.739"/>
    <line class="cls-2" x1="302.587" y1="358.728" x2="344.646" y2="358.728"/>
    <line class="cls-2" x1="1895.395" y1="404.065" x2="1895.395" y2="787.301"/>
    <line class="cls-2" x1="281.14" y1="368.2" x2="243.026" y2="368.2"/>
    <line class="cls-2" x1="1895.395" y1="787.301" x2="243.026" y2="787.301"/>
    <line class="cls-2" x1="243.026" y1="368.2" x2="243.026" y2="787.301"/>
    <line class="cls-2" x1="1490.991" y1="346.736" x2="1490.991" y2="289.579"/>
    <line class="cls-2" x1="1490.991" y1="346.346" x2="1515.082" y2="333.002"/>
    <line class="cls-2" x1="1490.991" y1="289.315" x2="1514.816" y2="304.597"/>
    <line class="cls-2" x1="1514.816" y1="304.597" x2="1514.816" y2="333.455"/>
    <line class="cls-2" x1="1515.082" y1="318.158" x2="1542.661" y2="318.158"/>
    <line class="cls-2" x1="1450.047" y1="335.105" x2="1490.991" y2="335.105"/>
    <line class="cls-2" x1="250.223" y1="345.739" x2="250.223" y2="237.062"/>
    <line class="cls-2" x1="1490.991" y1="304.597" x2="1471.382" y2="304.597"/>
    <line class="cls-2" x1="250.223" y1="237.062" x2="1457.16" y2="237.062"/>
    <line class="cls-2" x1="1456.586" y1="318.312" x2="1456.586" y2="237.062"/>
    <text class="cls-52" transform="translate(1492.363 307.31)"><tspan x="0" y="0">00</tspan></text>
    <text class="cls-42" transform="translate(1492.862 335.941)"><tspan x="0" y="0">10</tspan></text>
    <text class="cls-37" transform="translate(283.125 349.475)"><tspan x="0" y="0">0</tspan></text>
    <text class="cls-38" transform="translate(283.673 372.11)"><tspan x="0" y="0">1</tspan></text>
    <line class="cls-2" x1="137.74" y1="361.231" x2="126.263" y2="361.231"/>
    <text class="cls-34" transform="translate(1445.206 463.417)"><tspan x="0" y="0">00</tspan></text>
    <text class="cls-34" transform="translate(1446.251 503.709)"><tspan x="0" y="0">11</tspan></text>
    <line class="cls-2" x1="889.781" y1="345.054" x2="889.781" y2="372.509"/>
    <line class="cls-2" x1="931.597" y1="372.509" x2="889.781" y2="372.509"/>
    <line class="cls-2" x1="845.675" y1="345.054" x2="890.355" y2="345.054"/>
    <line class="cls-2" x1="889.781" y1="372.509" x2="889.781" y2="402.222"/>
    <line class="cls-2" x1="889.781" y1="402.222" x2="889.781" y2="616.338"/>
    <line class="cls-2" x1="970.058" y1="618.485" x2="889.781" y2="618.485"/>
    <line class="cls-2" x1="889.781" y1="616.338" x2="889.781" y2="618.924"/>
    <rect class="cls-5" x="763.433" y="419.718" width="81.564" height="56.028" rx="12.355" ry="12.355"/>
    <text class="cls-40" transform="translate(777.541 447.181)"><tspan x="0" y="0">DR</tspan></text>
    <line class="cls-2" x1="699.121" y1="349.586" x2="701.73" y2="349.586"/>
    <line class="cls-2" x1="729.988" y1="349.591" x2="729.988" y2="448.224"/>
    <line class="cls-2" x1="763.433" y1="447.732" x2="730.621" y2="447.732"/>
    <line class="cls-2" x1="730.063" y1="447.732" x2="731.631" y2="447.732"/>
    <line class="cls-2" x1="1373.096" y1="454.57" x2="1373.096" y2="559.466"/>
    <line class="cls-2" x1="319.522" y1="559.466" x2="1373.096" y2="559.466"/>
    <line class="cls-2" x1="903.501" y1="473.813" x2="903.501" y2="426.658"/>
    <line class="cls-2" x1="903.501" y1="473.491" x2="923.376" y2="462.482"/>
    <line class="cls-2" x1="903.501" y1="426.441" x2="923.157" y2="439.048"/>
    <line class="cls-2" x1="923.157" y1="439.048" x2="923.157" y2="462.856"/>
    <text class="cls-55" transform="translate(906.265 442.778)"><tspan x="0" y="0">0</tspan></text>
    <text class="cls-35" transform="translate(906.485 465.555)"><tspan x="0" y="0">1</tspan></text>
    <line class="cls-2" x1="844.998" y1="463.391" x2="903.501" y2="463.391"/>
    <line class="cls-2" x1="860.802" y1="787.301" x2="860.802" y2="442.872"/>
    <line class="cls-2" x1="903.501" y1="442.059" x2="860.802" y2="442.059"/>
    <line class="cls-2" x1="860.802" y1="443.153" x2="860.802" y2="441.573"/>
    <line class="cls-2" x1="889.781" y1="402.222" x2="931.597" y2="402.222"/>
    <text class="cls-34" transform="translate(1445.729 476.599)"><tspan x="0" y="0">01</tspan></text>
    <line class="cls-2" x1="1373.096" y1="454.57" x2="1421.14" y2="454.57"/>
    <line class="cls-2" x1="274.13" y1="340.172" x2="280.913" y2="345.739"/>
    <line class="cls-2" x1="274.13" y1="350.998" x2="280.913" y2="345.597"/>
    <line class="cls-2" x1="337.863" y1="353.315" x2="344.646" y2="358.883"/>
    <line class="cls-2" x1="337.863" y1="364.141" x2="344.646" y2="358.74"/>
    <line class="cls-2" x1="274.357" y1="362.787" x2="281.14" y2="368.355"/>
    <line class="cls-2" x1="274.357" y1="373.614" x2="281.14" y2="368.212"/>
    <line class="cls-2" x1="1483.896" y1="329.691" x2="1490.679" y2="335.259"/>
    <line class="cls-2" x1="1483.896" y1="340.518" x2="1490.679" y2="335.116"/>
    <line class="cls-2" x1="1484.431" y1="299.184" x2="1491.214" y2="304.752"/>
    <line class="cls-2" x1="1484.431" y1="310.011" x2="1491.214" y2="304.609"/>
    <line class="cls-2" x1="1535.878" y1="312.745" x2="1542.661" y2="318.312"/>
    <line class="cls-2" x1="1535.878" y1="323.571" x2="1542.661" y2="318.169"/>
    <line class="cls-2" x1="1535.114" y1="479.822" x2="1542.257" y2="485.685"/>
    <line class="cls-2" x1="1535.114" y1="491.223" x2="1542.257" y2="485.535"/>
    <line class="cls-2" x1="1436.781" y1="451.917" x2="1443.924" y2="457.78"/>
    <line class="cls-2" x1="1436.781" y1="463.318" x2="1443.924" y2="457.63"/>
    <line class="cls-2" x1="1436.458" y1="497.996" x2="1443.602" y2="503.86"/>
    <line class="cls-2" x1="1436.458" y1="509.398" x2="1443.602" y2="503.709"/>
    <line class="cls-2" x1="896.718" y1="436.646" x2="903.501" y2="442.214"/>
    <line class="cls-2" x1="896.718" y1="447.473" x2="903.501" y2="442.071"/>
    <line class="cls-2" x1="896.718" y1="457.978" x2="903.501" y2="463.546"/>
    <line class="cls-2" x1="896.718" y1="468.804" x2="903.501" y2="463.403"/>
    <line class="cls-2" x1="924.814" y1="396.809" x2="931.597" y2="402.376"/>
    <line class="cls-2" x1="924.814" y1="407.635" x2="931.597" y2="402.233"/>
    <line class="cls-2" x1="925.019" y1="367.096" x2="931.802" y2="372.663"/>
    <line class="cls-2" x1="925.019" y1="377.922" x2="931.802" y2="372.52"/>
    <line class="cls-2" x1="925.019" y1="339.641" x2="931.802" y2="345.208"/>
    <line class="cls-2" x1="925.019" y1="350.467" x2="931.802" y2="345.066"/>
    <line class="cls-2" x1="756.306" y1="442.319" x2="763.089" y2="447.887"/>
    <line class="cls-2" x1="756.306" y1="453.145" x2="763.089" y2="447.744"/>
    <line class="cls-2" x1="756.65" y1="344.178" x2="763.433" y2="349.745"/>
    <line class="cls-2" x1="756.65" y1="355.004" x2="763.433" y2="349.602"/>
    <line class="cls-2" x1="798.802" y1="142.332" x2="804.37" y2="135.549"/>
    <line class="cls-2" x1="809.628" y1="142.332" x2="804.227" y2="135.549"/>
    <line class="cls-2" x1="337.863" y1="435.625" x2="344.646" y2="441.193"/>
    <line class="cls-2" x1="337.863" y1="446.451" x2="344.646" y2="441.05"/>
    <line class="cls-2" x1="130.958" y1="355.817" x2="137.74" y2="361.385"/>
    <line class="cls-2" x1="130.958" y1="366.644" x2="137.74" y2="361.242"/>
    <line class="cls-2" x1="1710.596" y1="398.652" x2="1717.379" y2="404.22"/>
    <line class="cls-2" x1="1710.596" y1="409.478" x2="1717.379" y2="404.077"/>
    <line class="cls-2" x1="963.275" y1="613.072" x2="970.058" y2="618.639"/>
    <line class="cls-2" x1="963.275" y1="623.898" x2="970.058" y2="618.497"/>
    <line class="cls-2" x1="923.157" y1="450.748" x2="931.597" y2="450.748"/>
    <line class="cls-2" x1="925.369" y1="445.539" x2="932.152" y2="451.107"/>
    <line class="cls-2" x1="925.369" y1="456.365" x2="932.152" y2="450.964"/>
    <line class="cls-2" x1="1672.905" y1="373.191" x2="1684.394" y2="373.191"/>
    <line class="cls-2" x1="1684.394" y1="219.932" x2="1684.394" y2="373.191"/>
    <line class="cls-2" x1="1678.981" y1="229.19" x2="1684.548" y2="219.932"/>
    <line class="cls-2" x1="1689.807" y1="229.19" x2="1684.406" y2="219.932"/>
    <line class="cls-2" x1="1677.768" y1="160.019" x2="1677.768" y2="101.353"/>
    <line class="cls-2" x1="979.145" y1="99.102" x2="1678.01" y2="99.102"/>
    <line class="cls-2" x1="1678.01" y1="142.332" x2="1678.01" y2="99.102"/>
    <line class="cls-2" x1="985.928" y1="104.515" x2="979.145" y2="98.948"/>
    <line class="cls-2" x1="985.928" y1="93.689" x2="979.145" y2="99.09"/>
    <line class="cls-2" x1="1758.161" y1="383.891" x2="1758.161" y2="262.371"/>
    <line class="cls-2" x1="1490.991" y1="318.158" x2="1456.586" y2="318.158"/>
    <line class="cls-2" x1="1758.161" y1="262.371" x2="1470.519" y2="262.371"/>
    <line class="cls-2" x1="1470.519" y1="262.371" x2="1470.519" y2="304.752"/>
    <line class="cls-2" x1="1471.57" y1="304.597" x2="1469.99" y2="304.597"/>
    <text class="cls-52" transform="translate(1492.758 321.118)"><tspan x="0" y="0">01</tspan></text>
    <line class="cls-2" x1="1484.208" y1="312.899" x2="1490.991" y2="318.467"/>
    <line class="cls-2" x1="1484.208" y1="323.725" x2="1490.991" y2="318.324"/>
    <line class="cls-2" x1="174.293" y1="393.876" x2="174.293" y2="430.522"/>
    <line class="cls-2" x1="310.398" y1="467.881" x2="310.398" y2="416.428"/>
    <line class="cls-2" x1="310.398" y1="467.529" x2="332.084" y2="455.517"/>
    <line class="cls-2" x1="310.398" y1="416.191" x2="331.845" y2="429.947"/>
    <line class="cls-2" x1="331.845" y1="429.947" x2="331.845" y2="455.925"/>
    <text class="cls-37" transform="translate(312.383 433.683)"><tspan x="0" y="0">00</tspan></text>
    <text class="cls-38" transform="translate(312.93 456.318)"><tspan x="0" y="0">10</tspan></text>
    <text class="cls-38" transform="translate(312.931 445.403)"><tspan x="0" y="0">01</tspan></text>
    <line class="cls-2" x1="331.785" y1="441.193" x2="343.941" y2="441.193"/>
    <line class="cls-2" x1="319.522" y1="559.466" x2="297.07" y2="559.466"/>
    <line class="cls-2" x1="310.398" y1="453.692" x2="297.07" y2="453.692"/>
    <line class="cls-2" x1="297.07" y1="559.466" x2="297.07" y2="453.692"/>
    <line class="cls-2" x1="310.398" y1="429.947" x2="174.293" y2="429.947"/>
    <line class="cls-2" x1="804.215" y1="475.746" x2="804.215" y2="529.458"/>
    <text class="cls-34" transform="translate(1446.251 489.798)"><tspan x="0" y="0">10</tspan></text>
    <line class="cls-2" x1="1443.602" y1="487.809" x2="1357.937" y2="487.809"/>
    <line class="cls-2" x1="804.215" y1="529.458" x2="1357.937" y2="529.458"/>
    <line class="cls-2" x1="1357.937" y1="487.809" x2="1357.937" y2="529.458"/>
    <line class="cls-2" x1="1436.458" y1="482.109" x2="1443.602" y2="487.972"/>
    <line class="cls-2" x1="1436.458" y1="493.51" x2="1443.602" y2="487.822"/>
    <line class="cls-2" x1="303.615" y1="424.534" x2="310.398" y2="430.102"/>
    <line class="cls-2" x1="303.615" y1="435.36" x2="310.398" y2="429.959"/>
    <line class="cls-2" x1="303.856" y1="436.618" x2="310.639" y2="442.186"/>
    <line class="cls-2" x1="303.856" y1="447.445" x2="310.639" y2="442.043"/>
    <line class="cls-2" x1="303.615" y1="448.279" x2="310.398" y2="453.847"/>
    <line class="cls-2" x1="303.615" y1="459.106" x2="310.398" y2="453.704"/>
    <line class="cls-2" x1="111.362" y1="250.77" x2="136.351" y2="250.77"/>
    <line class="cls-2" x1="148.798" y1="219.557" x2="135.92" y2="251.057"/>
    <line class="cls-2" x1="98.724" y1="219.557" x2="111.362" y2="251.297"/>
    <line class="cls-2" x1="120.984" y1="219.557" x2="98.724" y2="219.557"/>
    <line class="cls-2" x1="125.325" y1="219.557" x2="148.989" y2="219.557"/>
    <line class="cls-2" x1="123.082" y1="223.814" x2="125.763" y2="219.219"/>
    <line class="cls-2" x1="120.736" y1="219.697" x2="123.465" y2="223.814"/>
    <line class="cls-2" x1="188.761" y1="328.585" x2="188.761" y2="184.521"/>
    <line class="cls-2" x1="135.92" y1="219.697" x2="135.92" y2="184.521"/>
    <line class="cls-2" x1="188.761" y1="184.521" x2="135.92" y2="184.521"/>
    <text class="cls-37" transform="translate(113.609 237.844)"><tspan x="0" y="0">sum</tspan></text>
    <text class="cls-30" transform="translate(194.805 256.553)"><tspan x="0" y="0">inc</tspan></text>
    <line class="cls-2" x1="141.334" y1="212.915" x2="135.766" y2="219.697"/>
    <line class="cls-2" x1="130.507" y1="212.915" x2="135.909" y2="219.697"/>
    <line class="cls-2" x1="1703.554" y1="403.383" x2="1703.554" y2="364.399"/>
    <line class="cls-2" x1="104.441" y1="349.475" x2="98.724" y2="349.475"/>
    <line class="cls-2" x1="123.082" y1="250.77" x2="123.082" y2="293.789"/>
    <line class="cls-2" x1="98.724" y1="349.475" x2="98.724" y2="293.789"/>
    <line class="cls-2" x1="123.082" y1="293.789" x2="98.724" y2="293.789"/>
    <line class="cls-2" x1="1703.554" y1="364.399" x2="1861.66" y2="364.399"/>
    <line class="cls-2" x1="104.577" y1="374.476" x2="88.788" y2="374.476"/>
    <line class="cls-2" x1="1861.66" y1="364.399" x2="1861.66" y2="729.811"/>
    <line class="cls-2" x1="88.788" y1="374.476" x2="88.788" y2="729.811"/>
    <line class="cls-2" x1="1861.66" y1="729.811" x2="88.788" y2="729.811"/>
    <line class="cls-2" x1="100.226" y1="345.626" x2="105.049" y2="349.585"/>
    <line class="cls-2" x1="100.226" y1="353.324" x2="105.049" y2="349.484"/>
    <line class="cls-2" x1="99.618" y1="370.627" x2="104.441" y2="374.585"/>
    <line class="cls-2" x1="99.618" y1="378.325" x2="104.441" y2="374.484"/>
    <text class="cls-37" transform="translate(106.289 352.954)"><tspan x="0" y="0">0</tspan></text>
    <text class="cls-37" transform="translate(106.836 377.943)"><tspan x="0" y="0">1</tspan></text>
    <line class="cls-2" x1="116.502" y1="212.632" x2="110.934" y2="219.414"/>
    <line class="cls-2" x1="105.675" y1="212.632" x2="111.077" y2="219.414"/>
    <rect class="cls-5" x="377.357" y="319.367" width="81.564" height="56.028" rx="12.355" ry="12.355"/>
    <text class="cls-31" transform="translate(386.363 166.93)"><tspan x="0" y="0">inc len</tspan></text>
    <text class="cls-49" transform="translate(1709.408 358.526)"><tspan x="0" y="0">jmp/jsr</tspan></text>
    <text class="cls-33" transform="translate(970.058 780.243)"><tspan x="0" y="0">(A0), d(An), d(An,Xn)</tspan></text>
    <text class="cls-31" transform="translate(689.53 181.847)"><tspan x="0" y="0">IR.instr</tspan></text>
    <text class="cls-58" transform="translate(210.145 287.651)"><tspan x="0" y="0">jsr</tspan></text>
  </g>
  <g id="_Слой_2" data-name="Слой 2">
    <rect class="cls-5" x="931.916" y="285.616" width="409.596" height="216.519" rx="51.497" ry="51.497"/>
    <text class="cls-36" transform="translate(1049.765 340.151)"><tspan x="0" y="0">Register File</tspan></text>
    <rect class="cls-5" x="343.941" y="285.5" width="377.543" height="252.85" rx="24.894" ry="24.894"/>
    <text class="cls-45" transform="translate(357.089 525.769)"><tspan x="0" y="0">INSTR/DATA MEMORY</tspan></text>
    <rect class="cls-5" x="715.91" y=".5" width="263.235" height="135.049" rx="24.894" ry="24.894"/>
    <text class="cls-53" transform="translate(732.898 121.704)"><tspan x="0" y="0">Control Unit</tspan></text>
    <line class="cls-2" x1="768.074" y1="99.102" x2="768.074" y2="74.4"/>
    <line class="cls-2" x1="875.403" y1="39.868" x2="875.403" y2="15.708"/>
    <line class="cls-2" x1="768.074" y1="39.868" x2="768.074" y2="15.708"/>
    <line class="cls-2" x1="875.403" y1="15.708" x2="768.074" y2="15.708"/>
    <line class="cls-2" x1="916.186" y1="53.432" x2="939.584" y2="53.432"/>
    <g>
      <line class="cls-2" x1="465.804" y1="356.719" x2="465.804" y2="362.719"/>
      <line class="cls-20" x1="465.804" y1="373.638" x2="465.804" y2="411.856"/>
      <line class="cls-2" x1="465.804" y1="417.315" x2="465.804" y2="423.315"/>
    </g>
    <g>
      <line class="cls-2" x1="567.563" y1="422.824" x2="567.563" y2="416.824"/>
      <line class="cls-25" x1="567.563" y1="404.859" x2="567.563" y2="362.981"/>
      <line class="cls-2" x1="567.563" y1="356.998" x2="567.563" y2="350.998"/>
    </g>
    <g>
      <line class="cls-2" x1="506.586" y1="348.297" x2="512.586" y2="348.297"/>
      <line class="cls-27" x1="522.381" y1="348.297" x2="556.665" y2="348.297"/>
      <line class="cls-2" x1="561.563" y1="348.297" x2="567.563" y2="348.297"/>
    </g>
    <line class="cls-2" x1="567.563" y1="350.998" x2="567.563" y2="347.751"/>
    <g>
      <line class="cls-2" x1="506.586" y1="327.613" x2="512.586" y2="327.613"/>
      <line class="cls-23" x1="525.619" y1="327.613" x2="623.369" y2="327.613"/>
      <line class="cls-2" x1="629.886" y1="327.613" x2="635.886" y2="327.613"/>
    </g>
    <g>
      <line class="cls-2" x1="638.542" y1="423.315" x2="638.542" y2="417.315"/>
      <line class="cls-28" x1="638.542" y1="405.358" x2="638.542" y2="339.591"/>
      <line class="cls-2" x1="638.542" y1="333.613" x2="638.542" y2="327.613"/>
    </g>
    <line class="cls-2" x1="635.822" y1="327.613" x2="639.054" y2="327.613"/>
    <line class="cls-2" x1="657.493" y1="423.315" x2="657.493" y2="306.902"/>
    <line class="cls-2" x1="586.514" y1="422.824" x2="586.514" y2="308.168"/>
    <text class="cls-39" transform="translate(1155.603 398.001)"><tspan x="0" y="0">A7/SP</tspan></text>
    <line class="cls-2" x1="388.744" y1="359.825" x2="448.488" y2="359.825"/>
    <line class="cls-2" x1="448.488" y1="359.825" x2="448.488" y2="423.315"/>
    <line class="cls-2" x1="577.56" y1="423.077" x2="577.56" y2="334.485"/>
    <line class="cls-2" x1="650.326" y1="423.077" x2="650.326" y2="356.719"/>
    <line class="cls-2" x1="484.369" y1="473.132" x2="484.369" y2="508.357"/>
    <line class="cls-2" x1="696.701" y1="365.594" x2="680.454" y2="365.594"/>
    <line class="cls-2" x1="484.369" y1="508.357" x2="680.454" y2="508.357"/>
    <line class="cls-2" x1="680.454" y1="365.594" x2="680.454" y2="508.357"/>
    <line class="cls-2" x1="650.326" y1="356.719" x2="650.326" y2="346.393"/>
    <line class="cls-2" x1="696.701" y1="346.711" x2="650.326" y2="346.711"/>
    <line class="cls-2" x1="577.56" y1="334.485" x2="696.701" y2="334.485"/>
    <line class="cls-14" x1="638.542" y1="327.613" x2="638.542" y2="320.167"/>
    <line class="cls-24" x1="703.819" y1="328.614" x2="703.819" y2="320.167"/>
    <g>
      <line class="cls-2" x1="638.542" y1="320.167" x2="644.542" y2="320.167"/>
      <line class="cls-8" x1="655.197" y1="320.167" x2="692.491" y2="320.167"/>
      <line class="cls-2" x1="697.819" y1="320.167" x2="703.819" y2="320.167"/>
    </g>
  </g>
  <g id="_Слой_4" data-name="Слой 4">
    <rect class="cls-5" x="728.408" y="39.868" width="81.564" height="30.021" rx="12.355" ry="12.355"/>
    <text class="cls-50" transform="translate(745.35 57.216)"><tspan x="0" y="0">Decoder</tspan></text>
    <rect class="cls-5" x="834.621" y="39.868" width="81.564" height="30.021" rx="12.355" ry="12.355"/>
    <line class="cls-2" x1="809.973" y1="54.878" x2="834.621" y2="54.878"/>
    <text class="cls-50" transform="translate(866.075 57.329)"><tspan x="0" y="0">Sr</tspan></text>
    <text class="cls-47" transform="translate(937.934 50.705)"><tspan x="0" y="0">Управ.</tspan><tspan x="0" y="10.68">сигналы</tspan></text>
    <text class="cls-44" transform="translate(946.587 352.298)"><tspan x="0" y="0">RA1</tspan></text>
    <text class="cls-44" transform="translate(947.539 379.072)"><tspan x="0" y="0">RA2</tspan></text>
    <text class="cls-44" transform="translate(948.491 405.668)"><tspan x="0" y="0">WA</tspan></text>
    <text class="cls-44" transform="translate(948.627 456.477)"><tspan x="0" y="0">WD</tspan></text>
    <text class="cls-51" transform="translate(1306.013 349.195)"><tspan x="0" y="0">RD1</tspan></text>
    <text class="cls-51" transform="translate(1306.952 404.065)"><tspan x="0" y="0">RD2</tspan></text>
    <text class="cls-44" transform="translate(348.895 355.356)"><tspan x="0" y="0">RA1</tspan></text>
    <text class="cls-44" transform="translate(356.953 438.409)"><tspan x="0" y="0">WD</tspan></text>
    <text class="cls-51" transform="translate(726.892 346.711)"><tspan x="0" y="0">RD</tspan></text>
    <text class="cls-44" transform="translate(567.563 304.12)"><tspan x="0" y="0">Input</tspan></text>
    <text class="cls-44" transform="translate(634.003 304.227)"><tspan x="0" y="0">Output</tspan></text>
    <text class="cls-56" transform="translate(1146.656 278.833)"><tspan x="0" y="0">Reg.Write/Read</tspan></text>
    <text class="cls-56" transform="translate(1417.181 189.975)"><tspan x="0" y="0">AluCon2</tspan></text>
    <text class="cls-48" transform="translate(1483.455 137.45)"><tspan x="0" y="0">AlCon</tspan></text>
    <text class="cls-56" transform="translate(1696.49 84.919)"><tspan x="0" y="0">ld</tspan></text>
    <text class="cls-56" transform="translate(1561.591 202.218)"><tspan x="0" y="0">ALUOp</tspan></text>
    <text class="cls-56" transform="translate(824.865 295.587)"><tspan x="0" y="0">R/W</tspan></text>
    <text class="cls-56" transform="translate(915.229 645.108)"><tspan x="0" y="0">ld</tspan></text>
    <text class="cls-56" transform="translate(326.62 110.237)"><tspan x="0" y="0">MemCon2</tspan></text>
    <text class="cls-56" transform="translate(246.264 134.091)"><tspan x="0" y="0">MemCon</tspan></text>
    <text class="cls-56" transform="translate(153.943 149.395)"><tspan x="0" y="0">ld</tspan></text>
    <text class="cls-56" transform="translate(449.653 280.111)"><tspan x="0" y="0">Mem R/W</tspan></text>
    <text class="cls-56" transform="translate(917.587 290.045)"><tspan x="0" y="0">RFCon</tspan></text>
    <text class="cls-57" transform="translate(121.11 485.945)"><tspan x="0" y="0">PCsig</tspan></text>
    <text class="cls-54" transform="translate(1374.628 452.258)"><tspan x="0" y="0">RD2.WD</tspan></text>
  </g>
  <g id="_Слой_5" data-name="Слой 5">
    <rect class="cls-5" x="425.021" y="306.902" width="81.564" height="49.817" rx="12.355" ry="12.355"/>
    <line class="cls-2" x1="343.941" y1="359.825" x2="389.272" y2="359.825"/>
    <line class="cls-2" x1="425.021" y1="332.22" x2="389.272" y2="332.22"/>
    <line class="cls-2" x1="389.272" y1="359.825" x2="389.272" y2="331.983"/>
    <g>
      <path d="M436.749,320.741l2.044-7.068h1.446l2.044,7.068h-1.047l-1.675-6.212h-.09l-1.675,6.212h-1.047ZM437.696,319.019v-.946h3.59v.946h-3.59Z"/>
      <path d="M443.206,320.741v-7.068h.997v7.068h-.997ZM444.133,320.741v-.946h.788c.728,0,1.276-.208,1.643-.622.367-.415.551-1.037.551-1.867,0-.899-.184-1.572-.551-2.019s-.915-.669-1.643-.669h-.768l-.12-.946h.887c2.161,0,3.241,1.211,3.241,3.634,0,2.29-1.081,3.435-3.241,3.435h-.788Z"/>
      <path d="M449.189,320.741v-7.068h.997v7.068h-.997ZM450.116,320.741v-.946h.788c.728,0,1.276-.208,1.643-.622.367-.415.551-1.037.551-1.867,0-.899-.184-1.572-.551-2.019s-.915-.669-1.643-.669h-.768l-.12-.946h.887c2.161,0,3.241,1.211,3.241,3.634,0,2.29-1.081,3.435-3.241,3.435h-.788Z"/>
      <path d="M455.172,320.741v-7.068h.997v7.068h-.997ZM456.099,318.053v-.946h1.506c.396,0,.704-.104.925-.313.221-.209.332-.503.332-.881,0-.415-.111-.734-.332-.958-.221-.224-.529-.336-.925-.336h-1.486l-.12-.946h1.605c.734,0,1.302.186,1.703.558.4.372.601.899.601,1.583,0,.71-.2,1.261-.601,1.652-.401.392-.968.587-1.703.587h-1.506ZM458.971,320.741l-1.586-3.325h1.097l1.685,3.325h-1.196Z"/>
      <path d="M461.255,320.741v-7.068h.997v7.068h-.997ZM461.255,314.619v-.946h4.687v.946h-4.687ZM461.255,317.675v-.945h3.789v.945h-3.789ZM461.255,320.741v-.946h4.687v.946h-4.687Z"/>
      <path d="M469.187,320.841c-.402,0-.778-.032-1.129-.097-.351-.064-.676-.162-.975-.291l.13-1.005c.366.156.719.274,1.06.355.34.082.672.122.995.122.465,0,.811-.081,1.037-.244s.339-.41.339-.742c0-.421-.216-.73-.648-.926l-1.227-.558c-.482-.219-.852-.483-1.109-.792-.258-.309-.387-.692-.387-1.15,0-.617.186-1.095.559-1.434.372-.338.899-.508,1.581-.508.475,0,.896.07,1.261.209.366.139.718.367,1.057.682l-.698.707c-.293-.239-.566-.413-.82-.52-.254-.108-.52-.162-.795-.162-.342,0-.607.082-.795.247-.188.164-.282.407-.282.729,0,.229.062.416.185.56s.304.273.543.386l1.037.488c.525.246.924.523,1.197.832s.409.705.409,1.189c0,.641-.208,1.121-.625,1.441-.417.32-1.05.48-1.897.48Z"/>
      <path d="M475.17,320.841c-.402,0-.778-.032-1.129-.097-.351-.064-.676-.162-.975-.291l.13-1.005c.366.156.719.274,1.06.355.34.082.672.122.995.122.465,0,.811-.081,1.037-.244s.339-.41.339-.742c0-.421-.216-.73-.648-.926l-1.227-.558c-.482-.219-.852-.483-1.109-.792-.258-.309-.387-.692-.387-1.15,0-.617.186-1.095.559-1.434.372-.338.899-.508,1.581-.508.475,0,.896.07,1.261.209.366.139.718.367,1.057.682l-.698.707c-.293-.239-.566-.413-.82-.52-.254-.108-.52-.162-.795-.162-.342,0-.607.082-.795.247-.188.164-.282.407-.282.729,0,.229.062.416.185.56s.304.273.543.386l1.037.488c.525.246.924.523,1.197.832s.409.705.409,1.189c0,.641-.208,1.121-.625,1.441-.417.32-1.05.48-1.897.48Z"/>
      <path d="M440.254,333.074c-2.201,0-3.301-1.214-3.301-3.644,0-1.151.277-2.043.833-2.676.555-.632,1.338-.948,2.349-.948.489,0,.914.078,1.276.232s.626.374.793.659l-.738.732c-.149-.226-.34-.4-.571-.523-.231-.123-.481-.184-.75-.184-.642,0-1.156.231-1.543.692-.387.461-.581,1.117-.581,1.966,0,1.852.801,2.777,2.403,2.777.482,0,.958-.1,1.426-.298l.229.876c-.578.226-1.187.338-1.825.338Z"/>
      <path d="M445.499,333.074c-1.742,0-2.613-1.195-2.613-3.584,0-2.456.871-3.684,2.613-3.684s2.612,1.228,2.612,3.684c0,2.389-.871,3.584-2.612,3.584ZM445.499,332.158c1.043,0,1.565-.889,1.565-2.668,0-1.845-.522-2.768-1.565-2.768s-1.566.923-1.566,2.768c0,1.779.522,2.668,1.566,2.668Z"/>
      <path d="M449.189,332.974v-7.068h.997v7.068h-.997ZM450.116,332.974v-.946h.788c.728,0,1.276-.208,1.643-.622.367-.415.551-1.037.551-1.867,0-.899-.184-1.572-.551-2.019s-.915-.669-1.643-.669h-.768l-.12-.946h.887c2.161,0,3.241,1.211,3.241,3.634,0,2.29-1.081,3.435-3.241,3.435h-.788Z"/>
      <path d="M455.271,332.974v-7.068h.997v7.068h-.997ZM455.271,326.852v-.946h4.687v.946h-4.687ZM455.271,329.908v-.945h3.789v.945h-3.789ZM455.271,332.974v-.946h4.687v.946h-4.687Z"/>
      <path d="M437.223,345.207v-7.068h.997v7.068h-.997ZM438.15,345.207v-.946h.788c.728,0,1.276-.208,1.643-.622.367-.415.551-1.037.551-1.867,0-.899-.184-1.572-.551-2.019s-.915-.669-1.643-.669h-.768l-.12-.946h.887c2.161,0,3.241,1.211,3.241,3.634,0,2.29-1.081,3.435-3.241,3.435h-.788Z"/>
      <path d="M443.305,345.207v-7.068h.997v7.068h-.997ZM443.305,339.085v-.946h4.687v.946h-4.687ZM443.305,342.141v-.945h3.789v.945h-3.789ZM443.305,345.207v-.946h4.687v.946h-4.687Z"/>
      <path d="M452.22,345.307c-2.201,0-3.301-1.214-3.301-3.644,0-1.151.277-2.043.833-2.676.555-.632,1.338-.948,2.349-.948.489,0,.914.078,1.276.232s.626.374.793.659l-.738.732c-.149-.226-.34-.4-.571-.523-.231-.123-.481-.184-.75-.184-.642,0-1.156.231-1.543.692-.387.461-.581,1.117-.581,1.966,0,1.852.801,2.777,2.403,2.777.482,0,.958-.1,1.426-.298l.229.876c-.578.226-1.187.338-1.825.338Z"/>
      <path d="M457.465,345.307c-1.742,0-2.613-1.195-2.613-3.584,0-2.456.871-3.684,2.613-3.684s2.612,1.228,2.612,3.684c0,2.389-.871,3.584-2.612,3.584ZM457.465,344.391c1.043,0,1.565-.889,1.565-2.668,0-1.845-.522-2.768-1.565-2.768s-1.566.923-1.566,2.768c0,1.779.522,2.668,1.566,2.668Z"/>
      <path d="M461.155,345.207v-7.068h.997v7.068h-.997ZM462.083,345.207v-.946h.788c.728,0,1.276-.208,1.643-.622.367-.415.551-1.037.551-1.867,0-.899-.184-1.572-.551-2.019s-.915-.669-1.643-.669h-.768l-.12-.946h.887c2.161,0,3.241,1.211,3.241,3.634,0,2.29-1.081,3.435-3.241,3.435h-.788Z"/>
      <path d="M467.238,345.207v-7.068h.997v7.068h-.997ZM467.238,339.085v-.946h4.687v.946h-4.687ZM467.238,342.141v-.945h3.789v.945h-3.789ZM467.238,345.207v-.946h4.687v.946h-4.687Z"/>
      <path d="M473.122,345.207v-7.068h.997v7.068h-.997ZM474.049,342.519v-.946h1.506c.396,0,.704-.104.925-.313.221-.209.332-.503.332-.881,0-.415-.111-.734-.332-.958-.221-.224-.529-.336-.925-.336h-1.486l-.12-.946h1.605c.734,0,1.302.186,1.703.558.4.372.601.899.601,1.583,0,.71-.2,1.261-.601,1.652-.401.392-.968.587-1.703.587h-1.506ZM476.921,345.207l-1.586-3.325h1.097l1.685,3.325h-1.196Z"/>
    </g>
    <rect class="cls-5" x="607.236" y="423.315" width="62.612" height="49.817" rx="12.355" ry="12.355"/>
    <rect class="cls-5" x="536.257" y="422.824" width="62.612" height="49.817" rx="12.355" ry="12.355"/>
    <rect class="cls-5" x="438.745" y="423.315" width="61.591" height="49.817" rx="12.355" ry="12.355"/>
    <line class="cls-2" x1="471.217" y1="416.533" x2="465.649" y2="423.315"/>
    <line class="cls-2" x1="460.39" y1="416.533" x2="465.792" y2="423.315"/>
    <line class="cls-2" x1="572.976" y1="416.041" x2="567.409" y2="422.824"/>
    <line class="cls-2" x1="562.15" y1="416.041" x2="567.551" y2="422.824"/>
    <line class="cls-2" x1="643.955" y1="416.294" x2="638.387" y2="423.077"/>
    <line class="cls-2" x1="633.128" y1="416.294" x2="638.53" y2="423.077"/>
    <text class="cls-44" transform="translate(456.194 451.774)"><tspan x="0" y="0">RAM</tspan></text>
    <text class="cls-44" transform="translate(552.108 453.146)"><tspan x="0" y="0">Int1</tspan></text>
    <text class="cls-44" transform="translate(623.284 453.146)"><tspan x="0" y="0">Int2</tspan></text>
    <line class="cls-2" x1="591.927" y1="415.689" x2="586.36" y2="422.472"/>
    <line class="cls-2" x1="581.101" y1="415.689" x2="586.502" y2="422.472"/>
    <line class="cls-2" x1="652.08" y1="312.866" x2="657.647" y2="306.084"/>
    <line class="cls-2" x1="662.906" y1="312.866" x2="657.504" y2="306.084"/>
    <line class="cls-2" x1="343.941" y1="441.193" x2="379.442" y2="441.193"/>
    <line class="cls-2" x1="468.433" y1="473.132" x2="468.433" y2="496.004"/>
    <line class="cls-2" x1="379.442" y1="441.193" x2="379.442" y2="496.004"/>
    <line class="cls-2" x1="468.433" y1="496.004" x2="379.442" y2="496.004"/>
    <line class="cls-2" x1="567.563" y1="472.641" x2="567.563" y2="496.004"/>
    <line class="cls-2" x1="468.433" y1="496.004" x2="567.409" y2="496.004"/>
    <line class="cls-2" x1="638.387" y1="473.132" x2="638.387" y2="496.004"/>
    <line class="cls-2" x1="567.563" y1="496.004" x2="638.387" y2="496.004"/>
    <line class="cls-2" x1="632.974" y1="479.751" x2="638.542" y2="472.969"/>
    <line class="cls-2" x1="643.8" y1="479.751" x2="638.399" y2="472.969"/>
    <line class="cls-2" x1="562.15" y1="479.337" x2="567.717" y2="472.554"/>
    <line class="cls-2" x1="572.976" y1="479.337" x2="567.574" y2="472.554"/>
    <line class="cls-2" x1="463.02" y1="479.849" x2="468.587" y2="473.066"/>
    <line class="cls-2" x1="473.846" y1="479.849" x2="468.445" y2="473.066"/>
    <text class="cls-39" transform="translate(1036.791 379.072)"><tspan x="0" y="0">Data </tspan><tspan class="cls-59" x="49.097" y="0">	</tspan><tspan x="50.275" y="0">D0-D7</tspan></text>
    <text class="cls-39" transform="translate(1156.209 377.348)"><tspan x="0" y="0">Addr </tspan><tspan class="cls-59" x="49.097" y="0">	</tspan><tspan x="50.275" y="0">A0-A7</tspan></text>
    <line class="cls-2" x1="453.902" y1="416.672" x2="448.334" y2="423.455"/>
    <line class="cls-2" x1="443.075" y1="416.672" x2="448.477" y2="423.455"/>
    <line class="cls-2" x1="689.918" y1="360.181" x2="696.701" y2="365.748"/>
    <line class="cls-2" x1="689.918" y1="371.007" x2="696.701" y2="365.606"/>
    <line class="cls-2" x1="690.174" y1="341.298" x2="696.957" y2="346.865"/>
    <line class="cls-2" x1="690.174" y1="352.124" x2="696.957" y2="346.723"/>
    <line class="cls-2" x1="689.53" y1="329.072" x2="696.313" y2="334.639"/>
    <line class="cls-2" x1="689.53" y1="339.898" x2="696.313" y2="334.497"/>
  </g>
  <g id="_Слой_6" data-name="Слой 6">
    <g>
      <line class="cls-3" x1="979.145" y1="48.902" x2="985.145" y2="48.902"/>
      <line class="cls-12" x1="996.995" y1="48.902" x2="1702.063" y2="48.902"/>
      <line class="cls-3" x1="1707.988" y1="48.902" x2="1713.988" y2="48.902"/>
    </g>
    <g>
      <line class="cls-3" x1="1140.018" y1="48.902" x2="1140.018" y2="54.902"/>
      <line class="cls-6" x1="1140.018" y1="66.729" x2="1140.018" y2="273.703"/>
      <line class="cls-3" x1="1140.018" y1="279.616" x2="1140.018" y2="285.616"/>
    </g>
    <g>
      <line class="cls-3" x1="1597.869" y1="48.902" x2="1597.869" y2="54.902"/>
      <line class="cls-9" x1="1597.869" y1="66.894" x2="1597.869" y2="300.748"/>
      <line class="cls-3" x1="1597.869" y1="306.745" x2="1597.869" y2="312.745"/>
    </g>
    <g>
      <line class="cls-3" x1="1511.316" y1="48.902" x2="1511.316" y2="54.902"/>
      <line class="cls-22" x1="1511.316" y1="66.34" x2="1511.316" y2="289.397"/>
      <line class="cls-3" x1="1511.316" y1="295.116" x2="1511.316" y2="301.116"/>
    </g>
    <g>
      <line class="cls-3" x1="1463.575" y1="49.945" x2="1463.575" y2="55.945"/>
      <line class="cls-11" x1="1463.575" y1="67.911" x2="1463.575" y2="444.865"/>
      <line class="cls-3" x1="1463.575" y1="450.848" x2="1463.575" y2="456.848"/>
    </g>
    <g>
      <line class="cls-3" x1="1710.975" y1="48.902" x2="1710.975" y2="54.902"/>
      <line class="cls-1" x1="1710.975" y1="65.915" x2="1710.975" y2="148.513"/>
      <line class="cls-3" x1="1710.975" y1="154.019" x2="1710.975" y2="160.019"/>
    </g>
    <g>
      <line class="cls-3" x1="715.91" y1="64.622" x2="709.91" y2="64.622"/>
      <line class="cls-19" x1="698.017" y1="64.622" x2="61.724" y2="64.622"/>
      <line class="cls-3" x1="55.778" y1="64.622" x2="49.778" y2="64.622"/>
    </g>
    <g>
      <line class="cls-3" x1="174.293" y1="327.613" x2="174.293" y2="321.613"/>
      <line class="cls-4" x1="174.293" y1="309.661" x2="174.293" y2="76.598"/>
      <line class="cls-3" x1="174.293" y1="70.622" x2="174.293" y2="64.622"/>
    </g>
    <g>
      <line class="cls-3" x1="509.635" y1="64.622" x2="509.635" y2="70.622"/>
      <line class="cls-26" x1="509.635" y1="82.943" x2="509.635" y2="273.914"/>
      <line class="cls-3" x1="509.635" y1="280.075" x2="509.635" y2="286.075"/>
    </g>
    <g>
      <line class="cls-3" x1="1140.018" y1="268.399" x2="1134.018" y2="268.399"/>
      <line class="cls-21" x1="1121.893" y1="268.399" x2="521.697" y2="268.399"/>
      <line class="cls-3" x1="515.635" y1="268.399" x2="509.635" y2="268.399"/>
    </g>
    <g>
      <line class="cls-3" x1="820.294" y1="319.248" x2="820.294" y2="313.248"/>
      <line class="cls-10" x1="820.294" y1="300.299" x2="820.294" y2="280.874"/>
      <line class="cls-3" x1="820.294" y1="274.399" x2="820.294" y2="268.399"/>
    </g>
    <g>
      <line class="cls-3" x1="882.166" y1="268.392" x2="882.166" y2="274.392"/>
      <line class="cls-7" x1="882.167" y1="286.374" x2="882.167" y2="759.654"/>
      <line class="cls-3" x1="882.167" y1="765.645" x2="882.167" y2="771.645"/>
    </g>
    <g>
      <line class="cls-3" x1="970.058" y1="630.824" x2="964.058" y2="630.824"/>
      <line class="cls-15" x1="953.214" y1="630.824" x2="893.574" y2="630.824"/>
      <line class="cls-3" x1="888.152" y1="630.824" x2="882.152" y2="630.824"/>
    </g>
    <line class="cls-3" x1="844.998" y1="432.073" x2="882.152" y2="432.073"/>
    <g>
      <line class="cls-3" x1="290.581" y1="338.038" x2="290.581" y2="332.038"/>
      <line class="cls-13" x1="290.581" y1="319.59" x2="290.581" y2="76.846"/>
      <line class="cls-3" x1="290.581" y1="70.622" x2="290.581" y2="64.622"/>
    </g>
    <g>
      <line class="cls-3" x1="323.617" y1="424.67" x2="323.617" y2="418.67"/>
      <line class="cls-16" x1="323.617" y1="406.668" x2="323.617" y2="76.623"/>
      <line class="cls-3" x1="323.617" y1="70.622" x2="323.617" y2="64.622"/>
    </g>
    <g>
      <line class="cls-3" x1="913.329" y1="432.745" x2="913.329" y2="426.745"/>
      <line class="cls-18" x1="913.329" y1="415.026" x2="913.329" y2="280.258"/>
      <line class="cls-3" x1="913.329" y1="274.399" x2="913.329" y2="268.399"/>
    </g>
    <line class="cls-2" x1="696.701" y1="371.421" x2="696.701" y2="324.266"/>
    <line class="cls-2" x1="696.701" y1="371.098" x2="716.575" y2="360.09"/>
    <line class="cls-2" x1="696.701" y1="324.048" x2="716.356" y2="336.656"/>
    <line class="cls-2" x1="716.356" y1="336.656" x2="716.356" y2="360.464"/>
    <line class="cls-2" x1="716.356" y1="349.586" x2="728.996" y2="349.586"/>
    <text class="cls-46" transform="translate(698.226 337.054)"><tspan x="0" y="0">00</tspan></text>
    <text class="cls-46" transform="translate(698.162 348.154)"><tspan x="0" y="0">01</tspan></text>
    <text class="cls-46" transform="translate(698.532 365.255)"><tspan x="0" y="0">11</tspan></text>
    <text class="cls-46" transform="translate(698.532 356.991)"><tspan x="0" y="0">10</tspan></text>
    <line class="cls-2" x1="104.577" y1="386.431" x2="104.577" y2="334.979"/>
    <line class="cls-2" x1="104.577" y1="386.08" x2="126.263" y2="374.068"/>
    <line class="cls-2" x1="104.577" y1="334.741" x2="126.024" y2="348.498"/>
    <line class="cls-2" x1="126.024" y1="348.498" x2="126.024" y2="374.476"/>
    <line class="cls-17" x1="882.152" y1="771.651" x2="115.42" y2="771.651"/>
    <line class="cls-17" x1="115.42" y1="380.074" x2="115.42" y2="771.651"/>
    <line class="cls-2" x1="110.895" y1="219.557" x2="110.895" y2="199.224"/>
    <rect class="cls-5" x="566.453" y="141.844" width="81.564" height="56.028" rx="12.355" ry="12.355"/>
    <line class="cls-2" x1="804.37" y1="170.732" x2="648.018" y2="170.732"/>
    <text class="cls-40" transform="translate(589.658 177.038)"><tspan x="0" y="0">Len</tspan></text>
    <line class="cls-2" x1="654.801" y1="176.146" x2="648.018" y2="170.578"/>
    <line class="cls-2" x1="654.801" y1="165.319" x2="648.018" y2="170.721"/>
    <line class="cls-2" x1="566.453" y1="169.858" x2="110.895" y2="169.858"/>
    <line class="cls-2" x1="110.895" y1="199.224" x2="110.895" y2="169.858"/>
    <line class="cls-2" x1="123.082" y1="293.789" x2="232.297" y2="293.789"/>
    <line class="cls-2" x1="310.398" y1="442.154" x2="232.297" y2="442.154"/>
    <line class="cls-2" x1="232.297" y1="293.789" x2="232.297" y2="442.14"/>
  </g>
</svg>