<?xml version="1.0" encoding="UTF-8"?>
<svg xmlns="http://www.w3.org/2000/svg" viewBox="0 0 1975.021 966.313">
  <defs>
    <style>
      .cls-1 {
        stroke-dasharray: 11.013 11.013;
      }

      .cls-1, .cls-2, .cls-3, .cls-4, .cls-5, .cls-6, .cls-7, .cls-8, .cls-9, .cls-10, .cls-11, .cls-12, .cls-13, .cls-14, .cls-15, .cls-16, .cls-17, .cls-18, .cls-19, .cls-20, .cls-21 {
        stroke-miterlimit: 10;
      }

      .cls-1, .cls-2, .cls-3, .cls-4, .cls-6, .cls-7, .cls-8, .cls-9, .cls-10, .cls-11, .cls-12, .cls-13, .cls-14, .cls-15, .cls-16, .cls-17, .cls-18, .cls-19, .cls-20, .cls-21 {
        fill: none;
      }

      .cls-1, .cls-3, .cls-4, .cls-6, .cls-7, .cls-8, .cls-9, .cls-10, .cls-11, .cls-12, .cls-13, .cls-14, .cls-15, .cls-16, .cls-17, .cls-18, .cls-19, .cls-20, .cls-21 {
        stroke: #1c58af;
      }

      .cls-22 {
        font-size: 15.475px;
      }

      .cls-22, .cls-23, .cls-24, .cls-25, .cls-26, .cls-27, .cls-28, .cls-29, .cls-30, .cls-31, .cls-32, .cls-33, .cls-34, .cls-35, .cls-36, .cls-37, .cls-38, .cls-39, .cls-40, .cls-41, .cls-42, .cls-43, .cls-44 {
        font-family: CascadiaCode-Roman, 'Cascadia Code';
        font-variation-settings: 'wght' 400;
      }

      .cls-2, .cls-5 {
        stroke: #000;
      }

      .cls-23 {
        font-size: 9.233px;
      }

      .cls-24 {
        font-size: 9.55px;
      }

      .cls-24, .cls-34 {
        fill: #1c58af;
      }

      .cls-25 {
        font-size: 9.388px;
      }

      .cls-45, .cls-5 {
        fill: #fff;
      }

      .cls-26 {
        font-size: 25.041px;
      }

      .cls-4 {
        stroke-dasharray: 11.952 11.952;
      }

      .cls-27 {
        font-size: 16.566px;
      }

      .cls-6 {
        stroke-dasharray: 7.619;
      }

      .cls-28 {
        font-size: 9.458px;
      }

      .cls-29 {
        font-size: 20.127px;
      }

      .cls-30 {
        font-size: 8.81px;
      }

      .cls-7 {
        stroke-dasharray: 11.827 11.827;
      }

      .cls-31 {
        font-size: 13.901px;
      }

      .cls-8 {
        stroke-dasharray: 11.986 11.986;
      }

      .cls-9 {
        stroke-dasharray: 12.034 12.034;
      }

      .cls-32 {
        font-size: 13.845px;
      }

      .cls-33 {
        font-size: 19.999px;
      }

      .cls-34 {
        font-size: 8.587px;
      }

      .cls-10 {
        stroke-dasharray: 11.993 11.993;
      }

      .cls-11 {
        stroke-dasharray: 12.95 12.95;
      }

      .cls-12 {
        stroke-dasharray: 11.967 11.967;
      }

      .cls-46 {
        fill: #fffff1;
        font-family: MyriadPro-Regular, 'Myriad Pro';
        font-size: 14.011px;
      }

      .cls-13 {
        stroke-dasharray: 12.171 12.171;
      }

      .cls-14 {
        stroke-dasharray: 12.448 12.448;
      }

      .cls-47 {
        font-family: FranklinGothic-Medium, 'Franklin Gothic Medium';
        font-size: 7.767px;
        font-weight: 500;
      }

      .cls-35 {
        font-size: 9.35px;
      }

      .cls-36 {
        font-size: 8.9px;
      }

      .cls-15 {
        stroke-dasharray: 10.844 10.844;
      }

      .cls-16 {
        stroke-dasharray: 12.002 12.002;
      }

      .cls-37 {
        font-size: 15.303px;
      }

      .cls-17 {
        stroke-dasharray: 7.232;
      }

      .cls-38 {
        font-size: 14.688px;
      }

      .cls-18 {
        stroke-dasharray: 11.719 11.719;
      }

      .cls-19 {
        stroke-dasharray: 12.125 12.125;
      }

      .cls-20 {
        stroke-dasharray: 11.439 11.439;
      }

      .cls-39 {
        font-size: 9.662px;
      }

      .cls-48 {
        letter-spacing: -.516em;
      }

      .cls-40 {
        font-size: 21.508px;
      }

      .cls-41 {
        font-size: 7.745px;
      }

      .cls-42 {
        font-size: 21.274px;
      }

      .cls-21 {
        stroke-dasharray: 12.321 12.321;
      }

      .cls-43 {
        font-size: 16.758px;
      }

      .cls-44 {
        font-size: 11.359px;
      }
    </style>
  </defs>
  <g id="_Слой_1" data-name="Слой 1">
    <path class="cls-5" d="M1484.387,292.248c1.433-2.134,4.715-.678,10.379,1.668,4.439,1.876,8.825,3.69,13.374,5.574,31.832,13.24,67.389,27.257,99.517,40.524,5.868,2.271,5.706,6.657,5.757,13.364.016,6.074.018,12.035.014,18.436.002,18.104-.002,38.198,0,56.251-.003,10.921.006,20.574-.005,27.152-.26,6.059.622,10.21-2.896,13.192-26.032,11.97-90.332,35.359-119.224,47.159-2.388.848-4.987,2.041-6.852.856-1.346-1.344-1.463-3.528-1.647-5.801-.13-2.302-.183-4.91-.187-7.448.007-13.599-.058-35.42.02-50.207.035-2.863.151-5.968.645-8.537,1.732-9.785,12.312-11.478,20.726-14.844,17.881-5.967,22.074-10.061,21.973-29.869.07-9.389-1.071-19.908-8.971-25.643-8.034-6.384-19.594-8.53-26.846-14.91-5.523-5.299-4.973-12.759-5.532-20.47-.411-10.072-1.02-24.354-1.346-34.04-.179-6.486-.09-10.655,1.068-12.356l.033-.049Z"/>
    <text class="cls-40" transform="translate(1547.542 398.796)"><tspan x="0" y="0">ALU</tspan></text>
    <rect class="cls-5" x="1552.999" y="160.019" width="134.226" height="59.913" rx="17.393" ry="17.393"/>
    <text class="cls-38" transform="translate(1570.533 179.58)"><tspan x="0" y="0">SR</tspan></text>
    <g>
      <path class="cls-45" d="M1594.617,189.902h9.848c2.683,0,4.861,2.178,4.861,4.861v6.628c0,2.683-2.179,4.862-4.862,4.862h-9.847c-2.684,0-4.862-2.179-4.862-4.862v-6.628c0-2.683,2.178-4.861,4.861-4.861Z"/>
      <path d="M1604.465,190.402c2.405,0,4.362,1.957,4.362,4.362v6.628c0,2.405-1.957,4.362-4.362,4.362h-9.848c-2.405,0-4.362-1.957-4.362-4.362v-6.628c0-2.405,1.957-4.362,4.362-4.362h9.848M1604.465,189.402h-9.848c-2.961,0-5.362,2.401-5.362,5.362v6.628c0,2.961,2.401,5.362,5.362,5.362h9.848c2.961,0,5.362-2.401,5.362-5.362v-6.628c0-2.961-2.401-5.362-5.362-5.362h0Z"/>
    </g>
    <g>
      <rect class="cls-45" x="1610.327" y="189.902" width="19.571" height="16.352" rx="4.862" ry="4.862"/>
      <path d="M1625.036,190.402c2.405,0,4.362,1.957,4.362,4.362v6.628c0,2.405-1.957,4.362-4.362,4.362h-9.848c-2.405,0-4.362-1.957-4.362-4.362v-6.628c0-2.405,1.957-4.362,4.362-4.362h9.848M1625.036,189.402h-9.848c-2.961,0-5.362,2.401-5.362,5.362v6.628c0,2.961,2.401,5.362,5.362,5.362h9.848c2.961,0,5.362-2.401,5.362-5.362v-6.628c0-2.961-2.401-5.362-5.362-5.362h0Z"/>
    </g>
    <g>
      <path class="cls-45" d="M1574.046,189.902h9.848c2.683,0,4.861,2.178,4.861,4.861v6.628c0,2.683-2.179,4.862-4.862,4.862h-9.847c-2.684,0-4.862-2.179-4.862-4.862v-6.627c0-2.683,2.179-4.862,4.862-4.862Z"/>
      <path d="M1583.894,190.402c2.405,0,4.362,1.957,4.362,4.362v6.628c0,2.405-1.957,4.362-4.362,4.362h-9.848c-2.405,0-4.362-1.957-4.362-4.362v-6.628c0-2.405,1.957-4.362,4.362-4.362h9.848M1583.894,189.402h-9.848c-2.961,0-5.362,2.401-5.362,5.362v6.628c0,2.961,2.401,5.362,5.362,5.362h9.848c2.961,0,5.362-2.401,5.362-5.362v-6.628c0-2.961-2.401-5.362-5.362-5.362h0Z"/>
    </g>
    <g>
      <path class="cls-45" d="M1635.331,189.902h9.847c2.683,0,4.861,2.178,4.861,4.861v6.629c0,2.683-2.178,4.861-4.861,4.861h-9.848c-2.683,0-4.861-2.178-4.861-4.861v-6.628c0-2.684,2.179-4.862,4.862-4.862Z"/>
      <path d="M1645.178,190.402c2.405,0,4.362,1.957,4.362,4.362v6.628c0,2.405-1.957,4.362-4.362,4.362h-9.848c-2.405,0-4.362-1.957-4.362-4.362v-6.628c0-2.405,1.957-4.362,4.362-4.362h9.848M1645.178,189.402h-9.848c-2.961,0-5.362,2.401-5.362,5.362v6.628c0,2.961,2.401,5.362,5.362,5.362h9.848c2.961,0,5.362-2.401,5.362-5.362v-6.628c0-2.961-2.401-5.362-5.362-5.362h0Z"/>
    </g>
    <text class="cls-47" transform="translate(1574.466 200.361)"><tspan x="0" y="0">Z</tspan></text>
    <text class="cls-47" transform="translate(1596.601 200.471)"><tspan x="0" y="0">N</tspan></text>
    <text class="cls-47" transform="translate(1618.884 200.271)"><tspan x="0" y="0">V</tspan></text>
    <text class="cls-47" transform="translate(1638.014 200.271)"><tspan x="0" y="0">C</tspan></text>
    <rect class="cls-5" x="78.872" y="328.585" width="81.564" height="65.29" rx="12.355" ry="12.355"/>
    <text class="cls-26" transform="translate(93.171 357.828)"><tspan x="0" y="0">PC</tspan></text>
    <text class="cls-46" transform="translate(571.667 890.781)"><tspan x="0" y="0">flags/CU</tspan></text>
    <rect class="cls-5" x="704.564" y="319.248" width="81.564" height="56.028" rx="12.355" ry="12.355"/>
    <text class="cls-33" transform="translate(718.672 346.711)"><tspan x="0" y="0">IR</tspan></text>
    <rect class="cls-5" x="1323.268" y="320.5" width="67.91" height="40.623" rx="12.355" ry="12.355"/>
    <text class="cls-43" transform="translate(1342.934 343.745)"><tspan x="0" y="0">MDR</tspan></text>
    <rect class="cls-5" x="911.189" y="586.944" width="81.564" height="58.787" rx="12.355" ry="12.355"/>
    <text class="cls-26" transform="translate(928.936 618.485)"><tspan x="0" y="0">EA</tspan></text>
    <line class="cls-2" x1="1282.568" y1="341.543" x2="1322.941" y2="341.543"/>
    <line class="cls-2" x1="641.545" y1="349.586" x2="704.564" y2="349.586"/>
    <line class="cls-2" x1="745.347" y1="319.248" x2="745.347" y2="135.549"/>
    <line class="cls-2" x1="830.912" y1="345.054" x2="875.409" y2="345.054"/>
    <line class="cls-2" x1="1384.733" y1="515.537" x2="1384.733" y2="446.717"/>
    <line class="cls-2" x1="1384.733" y1="515.066" x2="1413.739" y2="499"/>
    <line class="cls-2" x1="1384.733" y1="446.4" x2="1413.419" y2="464.8"/>
    <line class="cls-2" x1="1413.419" y1="464.8" x2="1413.419" y2="499.546"/>
    <line class="cls-2" x1="1413.419" y1="485.523" x2="1483.388" y2="485.523"/>
    <line class="cls-2" x1="992.754" y1="616.338" x2="1347.818" y2="616.338"/>
    <line class="cls-2" x1="1384.733" y1="503.697" x2="1347.818" y2="503.697"/>
    <line class="cls-2" x1="1347.818" y1="616.338" x2="1347.818" y2="503.456"/>
    <text class="cls-37" transform="translate(1034.825 609.681)"><tspan x="0" y="0">SignImm</tspan></text>
    <line class="cls-2" x1="1282.324" y1="398.001" x2="1362.271" y2="398.001"/>
    <line class="cls-2" x1="1384.733" y1="457.617" x2="1362.802" y2="457.617"/>
    <line class="cls-2" x1="1362.271" y1="398.001" x2="1362.271" y2="458.073"/>
    <rect class="cls-5" x="1658.51" y="383.891" width="81.564" height="48.791" rx="12.355" ry="12.355"/>
    <text class="cls-29" transform="translate(1682.129 411.809)"><tspan x="0" y="0">RES</tspan></text>
    <line class="cls-2" x1="1613.43" y1="404.065" x2="1658.51" y2="404.065"/>
    <line class="cls-2" x1="1740.075" y1="404.065" x2="1836.527" y2="404.065"/>
    <line class="cls-2" x1="222.271" y1="383.673" x2="222.271" y2="332.22"/>
    <line class="cls-2" x1="222.271" y1="383.321" x2="243.957" y2="371.309"/>
    <line class="cls-2" x1="222.271" y1="331.983" x2="243.718" y2="345.739"/>
    <line class="cls-2" x1="243.718" y1="345.739" x2="243.718" y2="371.717"/>
    <line class="cls-2" x1="160.436" y1="345.739" x2="222.271" y2="345.739"/>
    <line class="cls-2" x1="243.718" y1="358.728" x2="285.777" y2="358.728"/>
    <line class="cls-2" x1="1836.527" y1="404.065" x2="1836.527" y2="787.301"/>
    <line class="cls-2" x1="222.271" y1="368.2" x2="184.157" y2="368.2"/>
    <line class="cls-2" x1="1836.527" y1="787.301" x2="184.157" y2="787.301"/>
    <line class="cls-2" x1="184.157" y1="368.2" x2="184.157" y2="787.301"/>
    <line class="cls-2" x1="1432.122" y1="346.736" x2="1432.122" y2="289.579"/>
    <line class="cls-2" x1="1432.122" y1="346.346" x2="1456.213" y2="333.002"/>
    <line class="cls-2" x1="1432.122" y1="289.315" x2="1455.947" y2="304.597"/>
    <line class="cls-2" x1="1455.947" y1="304.597" x2="1455.947" y2="333.455"/>
    <line class="cls-2" x1="1456.213" y1="318.158" x2="1483.792" y2="318.158"/>
    <line class="cls-2" x1="1391.178" y1="335.105" x2="1432.122" y2="335.105"/>
    <line class="cls-2" x1="191.354" y1="345.739" x2="191.354" y2="237.062"/>
    <line class="cls-2" x1="1432.122" y1="304.597" x2="1412.513" y2="304.597"/>
    <line class="cls-2" x1="191.354" y1="237.062" x2="1398.291" y2="237.062"/>
    <line class="cls-2" x1="1397.717" y1="318.312" x2="1397.717" y2="237.062"/>
    <text class="cls-30" transform="translate(1433.494 307.31)"><tspan x="0" y="0">00</tspan></text>
    <text class="cls-25" transform="translate(1433.993 335.941)"><tspan x="0" y="0">10</tspan></text>
    <text class="cls-39" transform="translate(224.257 349.475)"><tspan x="0" y="0">0</tspan></text>
    <text class="cls-35" transform="translate(224.804 372.11)"><tspan x="0" y="0">1</tspan></text>
    <line class="cls-2" x1="78.872" y1="361.231" x2="51.104" y2="361.231"/>
    <line class="cls-2" x1="1639.636" y1="404.065" x2="1639.636" y2="342.317"/>
    <line class="cls-2" x1="51.104" y1="361.231" x2="51.104" y2="852.526"/>
    <line class="cls-2" x1="1639.636" y1="342.317" x2="1879.955" y2="342.317"/>
    <line class="cls-2" x1="51.104" y1="852.526" x2="927.487" y2="852.526"/>
    <line class="cls-2" x1="1879.955" y1="342.317" x2="1879.955" y2="852.526"/>
    <line class="cls-2" x1="927.487" y1="852.526" x2="1879.955" y2="852.526"/>
    <text class="cls-23" transform="translate(1386.338 463.417)"><tspan x="0" y="0">00</tspan></text>
    <text class="cls-23" transform="translate(1387.382 503.709)"><tspan x="0" y="0">11</tspan></text>
    <line class="cls-2" x1="830.912" y1="345.054" x2="830.912" y2="372.509"/>
    <line class="cls-2" x1="872.728" y1="372.509" x2="830.912" y2="372.509"/>
    <line class="cls-2" x1="786.806" y1="345.054" x2="831.487" y2="345.054"/>
    <line class="cls-2" x1="830.912" y1="372.509" x2="830.912" y2="402.222"/>
    <line class="cls-2" x1="830.912" y1="402.222" x2="830.912" y2="616.338"/>
    <line class="cls-2" x1="911.189" y1="618.485" x2="830.912" y2="618.485"/>
    <line class="cls-2" x1="830.912" y1="616.338" x2="830.912" y2="618.924"/>
    <rect class="cls-5" x="704.564" y="419.718" width="81.564" height="56.028" rx="12.355" ry="12.355"/>
    <text class="cls-33" transform="translate(718.672 447.181)"><tspan x="0" y="0">DR</tspan></text>
    <line class="cls-2" x1="640.253" y1="349.586" x2="642.862" y2="349.586"/>
    <line class="cls-2" x1="671.119" y1="349.591" x2="671.119" y2="448.224"/>
    <line class="cls-2" x1="704.564" y1="447.732" x2="671.753" y2="447.732"/>
    <line class="cls-2" x1="671.194" y1="447.732" x2="672.762" y2="447.732"/>
    <rect class="cls-5" x="1324.872" y="378.7" width="67.132" height="40.157" rx="12.355" ry="12.355"/>
    <text class="cls-27" transform="translate(1339.865 403.044)"><tspan x="0" y="0">MDR1</tspan></text>
    <line class="cls-2" x1="1314.227" y1="454.57" x2="1314.227" y2="559.466"/>
    <line class="cls-2" x1="260.653" y1="559.466" x2="1314.227" y2="559.466"/>
    <line class="cls-2" x1="844.632" y1="473.813" x2="844.632" y2="426.658"/>
    <line class="cls-2" x1="844.632" y1="473.491" x2="864.507" y2="462.482"/>
    <line class="cls-2" x1="844.632" y1="426.441" x2="864.288" y2="439.048"/>
    <line class="cls-2" x1="864.288" y1="439.048" x2="864.288" y2="462.856"/>
    <text class="cls-28" transform="translate(847.396 442.778)"><tspan x="0" y="0">0</tspan></text>
    <text class="cls-41" transform="translate(847.616 465.555)"><tspan x="0" y="0">1</tspan></text>
    <line class="cls-2" x1="786.129" y1="463.391" x2="844.632" y2="463.391"/>
    <line class="cls-2" x1="801.934" y1="787.301" x2="801.934" y2="442.872"/>
    <line class="cls-2" x1="844.632" y1="442.059" x2="801.934" y2="442.059"/>
    <line class="cls-2" x1="801.934" y1="443.153" x2="801.934" y2="441.573"/>
    <line class="cls-2" x1="830.912" y1="402.222" x2="872.728" y2="402.222"/>
    <text class="cls-23" transform="translate(1386.86 476.599)"><tspan x="0" y="0">01</tspan></text>
    <line class="cls-2" x1="1314.227" y1="454.57" x2="1362.271" y2="454.57"/>
    <line class="cls-2" x1="215.261" y1="340.172" x2="222.044" y2="345.739"/>
    <line class="cls-2" x1="215.261" y1="350.998" x2="222.044" y2="345.597"/>
    <line class="cls-2" x1="278.994" y1="353.315" x2="285.777" y2="358.883"/>
    <line class="cls-2" x1="278.994" y1="364.141" x2="285.777" y2="358.74"/>
    <line class="cls-2" x1="215.488" y1="362.787" x2="222.271" y2="368.355"/>
    <line class="cls-2" x1="215.488" y1="373.614" x2="222.271" y2="368.212"/>
    <line class="cls-2" x1="1316.485" y1="336.13" x2="1323.268" y2="341.698"/>
    <line class="cls-2" x1="1316.485" y1="346.957" x2="1323.268" y2="341.555"/>
    <line class="cls-2" x1="1318.089" y1="392.588" x2="1324.872" y2="398.155"/>
    <line class="cls-2" x1="1318.089" y1="403.414" x2="1324.872" y2="398.013"/>
    <line class="cls-2" x1="1425.027" y1="329.691" x2="1431.81" y2="335.259"/>
    <line class="cls-2" x1="1425.027" y1="340.518" x2="1431.81" y2="335.116"/>
    <line class="cls-2" x1="1425.562" y1="299.184" x2="1432.345" y2="304.752"/>
    <line class="cls-2" x1="1425.562" y1="310.011" x2="1432.345" y2="304.609"/>
    <line class="cls-2" x1="1477.009" y1="312.745" x2="1483.792" y2="318.312"/>
    <line class="cls-2" x1="1477.009" y1="323.571" x2="1483.792" y2="318.169"/>
    <line class="cls-2" x1="1476.245" y1="479.822" x2="1483.388" y2="485.685"/>
    <line class="cls-2" x1="1476.245" y1="491.223" x2="1483.388" y2="485.535"/>
    <line class="cls-2" x1="1377.912" y1="451.917" x2="1385.055" y2="457.78"/>
    <line class="cls-2" x1="1377.912" y1="463.318" x2="1385.055" y2="457.63"/>
    <line class="cls-2" x1="1377.59" y1="497.996" x2="1384.733" y2="503.86"/>
    <line class="cls-2" x1="1377.59" y1="509.398" x2="1384.733" y2="503.709"/>
    <line class="cls-2" x1="837.85" y1="436.646" x2="844.632" y2="442.214"/>
    <line class="cls-2" x1="837.85" y1="447.473" x2="844.632" y2="442.071"/>
    <line class="cls-2" x1="837.85" y1="457.978" x2="844.632" y2="463.546"/>
    <line class="cls-2" x1="837.85" y1="468.804" x2="844.632" y2="463.403"/>
    <line class="cls-2" x1="865.945" y1="396.809" x2="872.728" y2="402.376"/>
    <line class="cls-2" x1="865.945" y1="407.635" x2="872.728" y2="402.233"/>
    <line class="cls-2" x1="866.151" y1="367.096" x2="872.933" y2="372.663"/>
    <line class="cls-2" x1="866.151" y1="377.922" x2="872.933" y2="372.52"/>
    <line class="cls-2" x1="866.151" y1="339.641" x2="872.933" y2="345.208"/>
    <line class="cls-2" x1="866.151" y1="350.467" x2="872.933" y2="345.066"/>
    <line class="cls-2" x1="697.437" y1="442.319" x2="704.22" y2="447.887"/>
    <line class="cls-2" x1="697.437" y1="453.145" x2="704.22" y2="447.744"/>
    <line class="cls-2" x1="697.781" y1="344.178" x2="704.564" y2="349.745"/>
    <line class="cls-2" x1="697.781" y1="355.004" x2="704.564" y2="349.602"/>
    <line class="cls-2" x1="739.933" y1="142.332" x2="745.501" y2="135.549"/>
    <line class="cls-2" x1="750.76" y1="142.332" x2="745.358" y2="135.549"/>
    <line class="cls-2" x1="278.994" y1="435.625" x2="285.777" y2="441.193"/>
    <line class="cls-2" x1="278.994" y1="446.451" x2="285.777" y2="441.05"/>
    <line class="cls-2" x1="72.089" y1="355.817" x2="78.872" y2="361.385"/>
    <line class="cls-2" x1="72.089" y1="366.644" x2="78.872" y2="361.242"/>
    <line class="cls-2" x1="1651.728" y1="398.652" x2="1658.51" y2="404.22"/>
    <line class="cls-2" x1="1651.728" y1="409.478" x2="1658.51" y2="404.077"/>
    <line class="cls-2" x1="904.406" y1="613.072" x2="911.189" y2="618.639"/>
    <line class="cls-2" x1="904.406" y1="623.898" x2="911.189" y2="618.497"/>
    <line class="cls-2" x1="864.288" y1="450.748" x2="872.728" y2="450.748"/>
    <line class="cls-2" x1="866.5" y1="445.539" x2="873.283" y2="451.107"/>
    <line class="cls-2" x1="866.5" y1="456.365" x2="873.283" y2="450.964"/>
    <line class="cls-2" x1="1614.036" y1="373.191" x2="1625.525" y2="373.191"/>
    <line class="cls-2" x1="1625.525" y1="219.932" x2="1625.525" y2="373.191"/>
    <line class="cls-2" x1="1620.112" y1="229.19" x2="1625.68" y2="219.932"/>
    <line class="cls-2" x1="1630.938" y1="229.19" x2="1625.537" y2="219.932"/>
    <line class="cls-2" x1="1618.9" y1="160.019" x2="1618.9" y2="101.353"/>
    <line class="cls-2" x1="920.276" y1="99.102" x2="1619.141" y2="99.102"/>
    <line class="cls-2" x1="1619.141" y1="142.332" x2="1619.141" y2="99.102"/>
    <line class="cls-2" x1="927.059" y1="104.515" x2="920.276" y2="98.948"/>
    <line class="cls-2" x1="927.059" y1="93.689" x2="920.276" y2="99.09"/>
    <line class="cls-2" x1="1699.293" y1="383.891" x2="1699.293" y2="262.371"/>
    <line class="cls-2" x1="1432.122" y1="318.158" x2="1397.717" y2="318.158"/>
    <line class="cls-2" x1="1699.293" y1="262.371" x2="1411.65" y2="262.371"/>
    <line class="cls-2" x1="1411.65" y1="262.371" x2="1411.65" y2="304.752"/>
    <line class="cls-2" x1="1412.701" y1="304.597" x2="1411.121" y2="304.597"/>
    <text class="cls-30" transform="translate(1433.89 321.118)"><tspan x="0" y="0">01</tspan></text>
    <line class="cls-2" x1="1425.339" y1="312.899" x2="1432.122" y2="318.467"/>
    <line class="cls-2" x1="1425.339" y1="323.725" x2="1432.122" y2="318.324"/>
    <line class="cls-2" x1="115.424" y1="393.876" x2="115.424" y2="430.522"/>
    <line class="cls-2" x1="251.529" y1="467.881" x2="251.529" y2="416.428"/>
    <line class="cls-2" x1="251.529" y1="467.529" x2="273.215" y2="455.517"/>
    <line class="cls-2" x1="251.529" y1="416.191" x2="272.976" y2="429.947"/>
    <line class="cls-2" x1="272.976" y1="429.947" x2="272.976" y2="455.925"/>
    <text class="cls-39" transform="translate(253.514 433.683)"><tspan x="0" y="0">0</tspan></text>
    <text class="cls-35" transform="translate(254.062 456.318)"><tspan x="0" y="0">1</tspan></text>
    <line class="cls-2" x1="272.917" y1="441.193" x2="285.072" y2="441.193"/>
    <line class="cls-2" x1="260.653" y1="559.466" x2="238.201" y2="559.466"/>
    <line class="cls-2" x1="251.529" y1="453.692" x2="238.201" y2="453.692"/>
    <line class="cls-2" x1="238.201" y1="559.466" x2="238.201" y2="453.692"/>
    <line class="cls-2" x1="251.529" y1="429.947" x2="115.424" y2="429.947"/>
    <line class="cls-2" x1="745.347" y1="475.746" x2="745.347" y2="529.458"/>
    <text class="cls-23" transform="translate(1387.383 489.798)"><tspan x="0" y="0">10</tspan></text>
    <line class="cls-2" x1="1384.733" y1="487.809" x2="1299.068" y2="487.809"/>
    <line class="cls-2" x1="745.347" y1="529.458" x2="1299.068" y2="529.458"/>
    <line class="cls-2" x1="1299.068" y1="487.809" x2="1299.068" y2="529.458"/>
    <line class="cls-2" x1="1377.59" y1="482.109" x2="1384.733" y2="487.972"/>
    <line class="cls-2" x1="1377.59" y1="493.51" x2="1384.733" y2="487.822"/>
    <line class="cls-2" x1="920.276" y1="68.024" x2="1305.818" y2="68.024"/>
    <line class="cls-2" x1="1384.733" y1="473.464" x2="1302.754" y2="473.464"/>
    <line class="cls-2" x1="1302.754" y1="66.421" x2="1302.754" y2="473.464"/>
    <line class="cls-2" x1="244.746" y1="424.534" x2="251.529" y2="430.102"/>
    <line class="cls-2" x1="244.746" y1="435.36" x2="251.529" y2="429.959"/>
    <line class="cls-2" x1="244.746" y1="448.279" x2="251.529" y2="453.847"/>
    <line class="cls-2" x1="244.746" y1="459.106" x2="251.529" y2="453.704"/>
  </g>
  <g id="_Слой_2" data-name="Слой 2">
    <rect class="cls-5" x="872.728" y="285.616" width="409.596" height="216.519" rx="51.497" ry="51.497"/>
    <text class="cls-26" transform="translate(990.897 340.151)"><tspan x="0" y="0">Register File</tspan></text>
    <rect class="cls-5" x="285.777" y="286.075" width="354.236" height="252.85" rx="24.894" ry="24.894"/>
    <text class="cls-32" transform="translate(474.284 518.875)"><tspan x="0" y="0">INSTR/DATA MEMORY</tspan></text>
    <rect class="cls-5" x="657.041" y=".5" width="263.235" height="135.049" rx="24.894" ry="24.894"/>
    <text class="cls-42" transform="translate(674.029 121.704)"><tspan x="0" y="0">Control Unit</tspan></text>
    <line class="cls-2" x1="709.205" y1="99.102" x2="709.205" y2="74.4"/>
    <line class="cls-2" x1="816.535" y1="39.868" x2="816.535" y2="15.708"/>
    <line class="cls-2" x1="709.205" y1="39.868" x2="709.205" y2="15.708"/>
    <line class="cls-2" x1="816.535" y1="15.708" x2="709.205" y2="15.708"/>
    <line class="cls-2" x1="857.317" y1="53.432" x2="880.715" y2="53.432"/>
    <line class="cls-2" x1="406.935" y1="356.719" x2="406.935" y2="423.315"/>
    <line class="cls-2" x1="508.694" y1="422.824" x2="508.694" y2="350.998"/>
    <line class="cls-2" x1="447.717" y1="348.297" x2="508.694" y2="348.297"/>
    <line class="cls-2" x1="508.694" y1="350.998" x2="508.694" y2="347.751"/>
    <line class="cls-2" x1="447.717" y1="327.613" x2="577.017" y2="327.613"/>
    <line class="cls-2" x1="579.673" y1="423.315" x2="579.673" y2="327.613"/>
    <line class="cls-2" x1="576.953" y1="327.613" x2="580.185" y2="327.613"/>
    <line class="cls-2" x1="598.624" y1="423.315" x2="598.624" y2="306.902"/>
    <line class="cls-2" x1="527.645" y1="422.824" x2="527.645" y2="308.168"/>
    <text class="cls-43" transform="translate(1096.734 398.001)"><tspan x="0" y="0">A7/SP</tspan></text>
  </g>
  <g id="_Слой_4" data-name="Слой 4">
    <rect class="cls-5" x="669.54" y="39.868" width="81.564" height="30.021" rx="12.355" ry="12.355"/>
    <text class="cls-44" transform="translate(686.482 57.216)"><tspan x="0" y="0">Decoder</tspan></text>
    <rect class="cls-5" x="775.752" y="39.868" width="81.564" height="30.021" rx="12.355" ry="12.355"/>
    <line class="cls-2" x1="751.104" y1="54.878" x2="775.752" y2="54.878"/>
    <text class="cls-44" transform="translate(807.206 57.329)"><tspan x="0" y="0">Sr</tspan></text>
    <text class="cls-36" transform="translate(879.065 50.705)"><tspan x="0" y="0">Управ.</tspan><tspan x="0" y="10.68">сигналы</tspan></text>
    <text class="cls-31" transform="translate(887.719 352.298)"><tspan x="0" y="0">RA1</tspan></text>
    <text class="cls-31" transform="translate(888.671 379.072)"><tspan x="0" y="0">RA2</tspan></text>
    <text class="cls-31" transform="translate(889.622 405.668)"><tspan x="0" y="0">WA</tspan></text>
    <text class="cls-31" transform="translate(889.758 456.477)"><tspan x="0" y="0">WD</tspan></text>
    <text class="cls-22" transform="translate(1247.145 349.195)"><tspan x="0" y="0">RD1</tspan></text>
    <text class="cls-22" transform="translate(1248.083 404.065)"><tspan x="0" y="0">RD2</tspan></text>
    <text class="cls-31" transform="translate(294.93 353.315)"><tspan x="0" y="0">RA1</tspan></text>
    <text class="cls-31" transform="translate(298.084 438.409)"><tspan x="0" y="0">WD</tspan></text>
    <text class="cls-22" transform="translate(611.726 355.422)"><tspan x="0" y="0">RD</tspan></text>
    <text class="cls-31" transform="translate(508.694 304.12)"><tspan x="0" y="0">Input</tspan></text>
    <text class="cls-31" transform="translate(575.134 304.227)"><tspan x="0" y="0">Output</tspan></text>
    <text class="cls-24" transform="translate(1091.116 279.001)"><tspan x="0" y="0">Reg.Write</tspan></text>
    <text class="cls-24" transform="translate(1352.228 201.142)"><tspan x="0" y="0">AluCon2</tspan></text>
    <text class="cls-34" transform="translate(1424.586 137.45)"><tspan x="0" y="0">AlCon</tspan></text>
    <text class="cls-24" transform="translate(1637.621 84.919)"><tspan x="0" y="0">ld</tspan></text>
    <text class="cls-24" transform="translate(1502.723 202.218)"><tspan x="0" y="0">ALUOp</tspan></text>
    <text class="cls-24" transform="translate(765.997 295.587)"><tspan x="0" y="0">R/W</tspan></text>
    <text class="cls-24" transform="translate(856.36 645.108)"><tspan x="0" y="0">ld</tspan></text>
    <text class="cls-24" transform="translate(267.751 110.237)"><tspan x="0" y="0">MemCon2</tspan></text>
    <text class="cls-24" transform="translate(178.293 133.751)"><tspan x="0" y="0">MemCon</tspan></text>
    <text class="cls-24" transform="translate(95.074 149.395)"><tspan x="0" y="0">PC</tspan></text>
    <text class="cls-24" transform="translate(390.784 280.111)"><tspan x="0" y="0">Mem R/W</tspan></text>
    <text class="cls-24" transform="translate(1404.148 374.751)"><tspan x="0" y="0">Ld</tspan></text>
    <text class="cls-24" transform="translate(858.718 290.045)"><tspan x="0" y="0">RFCon</tspan></text>
  </g>
  <g id="_Слой_5" data-name="Слой 5">
    <rect class="cls-5" x="366.153" y="306.902" width="81.564" height="49.817" rx="12.355" ry="12.355"/>
    <line class="cls-2" x1="285.072" y1="357.947" x2="330.403" y2="357.947"/>
    <line class="cls-2" x1="366.153" y1="332.22" x2="330.403" y2="332.22"/>
    <line class="cls-2" x1="330.403" y1="357.947" x2="330.403" y2="331.983"/>
    <g>
      <path d="M377.88,320.741l2.044-7.068h1.446l2.044,7.068h-1.047l-1.675-6.212h-.09l-1.675,6.212h-1.047ZM378.827,319.019v-.946h3.59v.946h-3.59Z"/>
      <path d="M384.337,320.741v-7.068h.997v7.068h-.997ZM385.264,320.741v-.946h.788c.728,0,1.276-.208,1.643-.622.367-.415.551-1.037.551-1.867,0-.899-.184-1.572-.551-2.019s-.915-.669-1.643-.669h-.768l-.12-.946h.887c2.161,0,3.241,1.211,3.241,3.634,0,2.29-1.081,3.435-3.241,3.435h-.788Z"/>
      <path d="M390.32,320.741v-7.068h.997v7.068h-.997ZM391.247,320.741v-.946h.788c.728,0,1.276-.208,1.643-.622.367-.415.551-1.037.551-1.867,0-.899-.184-1.572-.551-2.019s-.915-.669-1.643-.669h-.768l-.12-.946h.887c2.161,0,3.241,1.211,3.241,3.634,0,2.29-1.081,3.435-3.241,3.435h-.788Z"/>
      <path d="M396.303,320.741v-7.068h.997v7.068h-.997ZM397.23,318.053v-.946h1.506c.396,0,.704-.104.925-.313.221-.209.332-.503.332-.881,0-.415-.111-.734-.332-.958-.221-.224-.529-.336-.925-.336h-1.486l-.12-.946h1.605c.734,0,1.302.186,1.703.558.4.372.601.899.601,1.583,0,.71-.2,1.261-.601,1.652-.401.392-.968.587-1.703.587h-1.506ZM400.102,320.741l-1.586-3.325h1.097l1.685,3.325h-1.196Z"/>
      <path d="M402.386,320.741v-7.068h.997v7.068h-.997ZM402.386,314.619v-.946h4.687v.946h-4.687ZM402.386,317.675v-.945h3.789v.945h-3.789ZM402.386,320.741v-.946h4.687v.946h-4.687Z"/>
      <path d="M410.318,320.841c-.402,0-.778-.032-1.129-.097-.351-.064-.676-.162-.975-.291l.13-1.005c.366.156.719.274,1.06.355.34.082.672.122.995.122.465,0,.811-.081,1.037-.244s.339-.41.339-.742c0-.421-.216-.73-.648-.926l-1.227-.558c-.482-.219-.852-.483-1.109-.792-.258-.309-.387-.692-.387-1.15,0-.617.186-1.095.559-1.434.372-.338.899-.508,1.581-.508.475,0,.896.07,1.261.209.366.139.718.367,1.057.682l-.698.707c-.293-.239-.566-.413-.82-.52-.254-.108-.52-.162-.795-.162-.342,0-.607.082-.795.247-.188.164-.282.407-.282.729,0,.229.062.416.185.56s.304.273.543.386l1.037.488c.525.246.924.523,1.197.832s.409.705.409,1.189c0,.641-.208,1.121-.625,1.441-.417.32-1.05.48-1.897.48Z"/>
      <path d="M416.302,320.841c-.402,0-.778-.032-1.129-.097-.351-.064-.676-.162-.975-.291l.13-1.005c.366.156.719.274,1.06.355.34.082.672.122.995.122.465,0,.811-.081,1.037-.244s.339-.41.339-.742c0-.421-.216-.73-.648-.926l-1.227-.558c-.482-.219-.852-.483-1.109-.792-.258-.309-.387-.692-.387-1.15,0-.617.186-1.095.559-1.434.372-.338.899-.508,1.581-.508.475,0,.896.07,1.261.209.366.139.718.367,1.057.682l-.698.707c-.293-.239-.566-.413-.82-.52-.254-.108-.52-.162-.795-.162-.342,0-.607.082-.795.247-.188.164-.282.407-.282.729,0,.229.062.416.185.56s.304.273.543.386l1.037.488c.525.246.924.523,1.197.832s.409.705.409,1.189c0,.641-.208,1.121-.625,1.441-.417.32-1.05.48-1.897.48Z"/>
      <path d="M381.385,333.074c-2.201,0-3.301-1.214-3.301-3.644,0-1.151.277-2.043.833-2.676.555-.632,1.338-.948,2.349-.948.489,0,.914.078,1.276.232s.626.374.793.659l-.738.732c-.149-.226-.34-.4-.571-.523-.231-.123-.481-.184-.75-.184-.642,0-1.156.231-1.543.692-.387.461-.581,1.117-.581,1.966,0,1.852.801,2.777,2.403,2.777.482,0,.958-.1,1.426-.298l.229.876c-.578.226-1.187.338-1.825.338Z"/>
      <path d="M386.63,333.074c-1.742,0-2.613-1.195-2.613-3.584,0-2.456.871-3.684,2.613-3.684s2.612,1.228,2.612,3.684c0,2.389-.871,3.584-2.612,3.584ZM386.63,332.158c1.043,0,1.565-.889,1.565-2.668,0-1.845-.522-2.768-1.565-2.768s-1.566.923-1.566,2.768c0,1.779.522,2.668,1.566,2.668Z"/>
      <path d="M390.32,332.974v-7.068h.997v7.068h-.997ZM391.247,332.974v-.946h.788c.728,0,1.276-.208,1.643-.622.367-.415.551-1.037.551-1.867,0-.899-.184-1.572-.551-2.019s-.915-.669-1.643-.669h-.768l-.12-.946h.887c2.161,0,3.241,1.211,3.241,3.634,0,2.29-1.081,3.435-3.241,3.435h-.788Z"/>
      <path d="M396.403,332.974v-7.068h.997v7.068h-.997ZM396.403,326.852v-.946h4.687v.946h-4.687ZM396.403,329.908v-.945h3.789v.945h-3.789ZM396.403,332.974v-.946h4.687v.946h-4.687Z"/>
      <path d="M378.354,345.207v-7.068h.997v7.068h-.997ZM379.281,345.207v-.946h.788c.728,0,1.276-.208,1.643-.622.367-.415.551-1.037.551-1.867,0-.899-.184-1.572-.551-2.019s-.915-.669-1.643-.669h-.768l-.12-.946h.887c2.161,0,3.241,1.211,3.241,3.634,0,2.29-1.081,3.435-3.241,3.435h-.788Z"/>
      <path d="M384.436,345.207v-7.068h.997v7.068h-.997ZM384.436,339.085v-.946h4.687v.946h-4.687ZM384.436,342.141v-.945h3.789v.945h-3.789ZM384.436,345.207v-.946h4.687v.946h-4.687Z"/>
      <path d="M393.351,345.307c-2.201,0-3.301-1.214-3.301-3.644,0-1.151.277-2.043.833-2.676.555-.632,1.338-.948,2.349-.948.489,0,.914.078,1.276.232s.626.374.793.659l-.738.732c-.149-.226-.34-.4-.571-.523-.231-.123-.481-.184-.75-.184-.642,0-1.156.231-1.543.692-.387.461-.581,1.117-.581,1.966,0,1.852.801,2.777,2.403,2.777.482,0,.958-.1,1.426-.298l.229.876c-.578.226-1.187.338-1.825.338Z"/>
      <path d="M398.597,345.307c-1.742,0-2.613-1.195-2.613-3.584,0-2.456.871-3.684,2.613-3.684s2.612,1.228,2.612,3.684c0,2.389-.871,3.584-2.612,3.584ZM398.597,344.391c1.043,0,1.565-.889,1.565-2.668,0-1.845-.522-2.768-1.565-2.768s-1.566.923-1.566,2.768c0,1.779.522,2.668,1.566,2.668Z"/>
      <path d="M402.286,345.207v-7.068h.997v7.068h-.997ZM403.214,345.207v-.946h.788c.728,0,1.276-.208,1.643-.622.367-.415.551-1.037.551-1.867,0-.899-.184-1.572-.551-2.019s-.915-.669-1.643-.669h-.768l-.12-.946h.887c2.161,0,3.241,1.211,3.241,3.634,0,2.29-1.081,3.435-3.241,3.435h-.788Z"/>
      <path d="M408.369,345.207v-7.068h.997v7.068h-.997ZM408.369,339.085v-.946h4.687v.946h-4.687ZM408.369,342.141v-.945h3.789v.945h-3.789ZM408.369,345.207v-.946h4.687v.946h-4.687Z"/>
      <path d="M414.253,345.207v-7.068h.997v7.068h-.997ZM415.18,342.519v-.946h1.506c.396,0,.704-.104.925-.313.221-.209.332-.503.332-.881,0-.415-.111-.734-.332-.958-.221-.224-.529-.336-.925-.336h-1.486l-.12-.946h1.605c.734,0,1.302.186,1.703.558.4.372.601.899.601,1.583,0,.71-.2,1.261-.601,1.652-.401.392-.968.587-1.703.587h-1.506ZM418.052,345.207l-1.586-3.325h1.097l1.685,3.325h-1.196Z"/>
    </g>
    <rect class="cls-5" x="548.367" y="423.315" width="62.612" height="49.817" rx="12.355" ry="12.355"/>
    <rect class="cls-5" x="477.388" y="422.824" width="62.612" height="49.817" rx="12.355" ry="12.355"/>
    <rect class="cls-5" x="379.876" y="423.315" width="61.591" height="49.817" rx="12.355" ry="12.355"/>
    <line class="cls-2" x1="412.348" y1="416.533" x2="406.78" y2="423.315"/>
    <line class="cls-2" x1="401.522" y1="416.533" x2="406.923" y2="423.315"/>
    <line class="cls-2" x1="514.107" y1="416.041" x2="508.54" y2="422.824"/>
    <line class="cls-2" x1="503.281" y1="416.041" x2="508.682" y2="422.824"/>
    <line class="cls-2" x1="585.086" y1="416.294" x2="579.518" y2="423.077"/>
    <line class="cls-2" x1="574.26" y1="416.294" x2="579.661" y2="423.077"/>
    <text class="cls-31" transform="translate(397.326 451.774)"><tspan x="0" y="0">RAM</tspan></text>
    <text class="cls-31" transform="translate(493.239 453.146)"><tspan x="0" y="0">Int1</tspan></text>
    <text class="cls-31" transform="translate(564.415 453.146)"><tspan x="0" y="0">Int2</tspan></text>
    <line class="cls-2" x1="533.058" y1="415.689" x2="527.491" y2="422.472"/>
    <line class="cls-2" x1="522.232" y1="415.689" x2="527.634" y2="422.472"/>
    <line class="cls-2" x1="593.211" y1="312.866" x2="598.778" y2="306.084"/>
    <line class="cls-2" x1="604.037" y1="312.866" x2="598.635" y2="306.084"/>
    <line class="cls-2" x1="285.072" y1="441.193" x2="320.573" y2="441.193"/>
    <line class="cls-2" x1="409.564" y1="473.132" x2="409.564" y2="496.004"/>
    <line class="cls-2" x1="320.573" y1="441.193" x2="320.573" y2="496.004"/>
    <line class="cls-2" x1="409.564" y1="496.004" x2="320.573" y2="496.004"/>
    <line class="cls-2" x1="508.694" y1="472.641" x2="508.694" y2="496.004"/>
    <line class="cls-2" x1="409.564" y1="496.004" x2="508.54" y2="496.004"/>
    <line class="cls-2" x1="579.518" y1="473.132" x2="579.518" y2="496.004"/>
    <line class="cls-2" x1="508.694" y1="496.004" x2="579.518" y2="496.004"/>
    <line class="cls-2" x1="574.105" y1="479.751" x2="579.673" y2="472.969"/>
    <line class="cls-2" x1="584.932" y1="479.751" x2="579.53" y2="472.969"/>
    <line class="cls-2" x1="503.281" y1="479.337" x2="508.848" y2="472.554"/>
    <line class="cls-2" x1="514.107" y1="479.337" x2="508.706" y2="472.554"/>
    <line class="cls-2" x1="404.151" y1="479.849" x2="409.719" y2="473.066"/>
    <line class="cls-2" x1="414.977" y1="479.849" x2="409.576" y2="473.066"/>
    <text class="cls-43" transform="translate(977.922 379.072)"><tspan x="0" y="0">Data </tspan><tspan class="cls-48" x="49.097" y="0">	</tspan><tspan x="50.275" y="0">D0-D7</tspan></text>
    <text class="cls-43" transform="translate(1097.34 377.348)"><tspan x="0" y="0">Addr </tspan><tspan class="cls-48" x="49.097" y="0">	</tspan><tspan x="50.275" y="0">A0-A7</tspan></text>
  </g>
  <g id="_Слой_6" data-name="Слой 6">
    <g>
      <line class="cls-3" x1="920.276" y1="48.902" x2="926.276" y2="48.902"/>
      <line class="cls-8" x1="938.262" y1="48.902" x2="1963.029" y2="48.902"/>
      <line class="cls-3" x1="1969.021" y1="48.902" x2="1975.021" y2="48.902"/>
    </g>
    <g>
      <line class="cls-3" x1="1081.149" y1="48.902" x2="1081.149" y2="54.902"/>
      <line class="cls-7" x1="1081.149" y1="66.729" x2="1081.149" y2="273.703"/>
      <line class="cls-3" x1="1081.149" y1="279.616" x2="1081.149" y2="285.616"/>
    </g>
    <g>
      <line class="cls-3" x1="1539" y1="48.902" x2="1539" y2="54.902"/>
      <line class="cls-10" x1="1539" y1="66.894" x2="1539" y2="300.748"/>
      <line class="cls-3" x1="1539" y1="306.745" x2="1539" y2="312.745"/>
    </g>
    <g>
      <line class="cls-3" x1="1452.447" y1="48.902" x2="1452.447" y2="54.902"/>
      <line class="cls-20" x1="1452.447" y1="66.34" x2="1452.447" y2="289.397"/>
      <line class="cls-3" x1="1452.447" y1="295.116" x2="1452.447" y2="301.116"/>
    </g>
    <g>
      <line class="cls-3" x1="1399.236" y1="48.696" x2="1399.236" y2="54.696"/>
      <line class="cls-12" x1="1399.236" y1="66.663" x2="1399.236" y2="443.616"/>
      <line class="cls-3" x1="1399.236" y1="449.6" x2="1399.236" y2="455.6"/>
    </g>
    <g>
      <line class="cls-3" x1="1652.106" y1="48.902" x2="1652.106" y2="54.902"/>
      <line class="cls-1" x1="1652.106" y1="65.915" x2="1652.106" y2="148.513"/>
      <line class="cls-3" x1="1652.106" y1="154.019" x2="1652.106" y2="160.019"/>
    </g>
    <g>
      <line class="cls-3" x1="657.041" y1="64.622" x2="651.041" y2="64.622"/>
      <line class="cls-13" x1="638.87" y1="64.622" x2="12.085" y2="64.622"/>
      <line class="cls-3" x1="6" y1="64.622" y2="64.622"/>
    </g>
    <g>
      <line class="cls-3" x1="115.424" y1="327.613" x2="115.424" y2="321.613"/>
      <line class="cls-4" x1="115.424" y1="309.661" x2="115.424" y2="76.598"/>
      <line class="cls-3" x1="115.424" y1="70.622" x2="115.424" y2="64.622"/>
    </g>
    <g>
      <line class="cls-3" x1="450.766" y1="64.622" x2="450.766" y2="70.622"/>
      <line class="cls-21" x1="450.766" y1="82.943" x2="450.766" y2="273.914"/>
      <line class="cls-3" x1="450.766" y1="280.075" x2="450.766" y2="286.075"/>
    </g>
    <g>
      <line class="cls-3" x1="1081.149" y1="268.399" x2="1075.149" y2="268.399"/>
      <line class="cls-19" x1="1063.024" y1="268.399" x2="462.829" y2="268.399"/>
      <line class="cls-3" x1="456.766" y1="268.399" x2="450.766" y2="268.399"/>
    </g>
    <g>
      <line class="cls-3" x1="761.426" y1="319.248" x2="761.426" y2="313.248"/>
      <line class="cls-11" x1="761.426" y1="300.299" x2="761.426" y2="280.874"/>
      <line class="cls-3" x1="761.426" y1="274.399" x2="761.426" y2="268.399"/>
    </g>
    <g>
      <line class="cls-3" x1="823.283" y1="268.399" x2="823.283" y2="274.399"/>
      <line class="cls-9" x1="823.283" y1="286.432" x2="823.283" y2="954.297"/>
      <line class="cls-3" x1="823.283" y1="960.313" x2="823.283" y2="966.313"/>
    </g>
    <g>
      <line class="cls-3" x1="911.189" y1="630.824" x2="905.189" y2="630.824"/>
      <line class="cls-15" x1="894.345" y1="630.824" x2="834.705" y2="630.824"/>
      <line class="cls-3" x1="829.283" y1="630.824" x2="823.283" y2="630.824"/>
    </g>
    <line class="cls-3" x1="786.129" y1="432.073" x2="823.283" y2="432.073"/>
    <g>
      <line class="cls-3" x1="231.712" y1="338.038" x2="231.712" y2="332.038"/>
      <line class="cls-14" x1="231.712" y1="319.59" x2="231.712" y2="76.846"/>
      <line class="cls-3" x1="231.712" y1="70.622" x2="231.712" y2="64.622"/>
    </g>
    <g>
      <line class="cls-3" x1="264.748" y1="424.67" x2="264.748" y2="418.67"/>
      <line class="cls-16" x1="264.748" y1="406.668" x2="264.748" y2="76.623"/>
      <line class="cls-3" x1="264.748" y1="70.622" x2="264.748" y2="64.622"/>
    </g>
    <g>
      <line class="cls-3" x1="854.46" y1="432.745" x2="854.46" y2="426.745"/>
      <line class="cls-18" x1="854.46" y1="415.026" x2="854.46" y2="280.258"/>
      <line class="cls-3" x1="854.46" y1="274.399" x2="854.46" y2="268.399"/>
    </g>
    <line class="cls-17" x1="1399.236" y1="398.779" x2="1392.004" y2="398.779"/>
    <line class="cls-6" x1="1399.236" y1="345.409" x2="1391.617" y2="345.409"/>
  </g>
</svg>