<?xml version="1.0" encoding="UTF-8"?>
<svg xmlns="http://www.w3.org/2000/svg" viewBox="0 0 2097.344 966.313">
  <defs>
    <style>
      .cls-1 {
        stroke-dasharray: 11.013 11.013;
      }

      .cls-1, .cls-2, .cls-3, .cls-4, .cls-5, .cls-6, .cls-7, .cls-8, .cls-9, .cls-10, .cls-11, .cls-12, .cls-13, .cls-14, .cls-15, .cls-16, .cls-17, .cls-18, .cls-19, .cls-20, .cls-21, .cls-22, .cls-23, .cls-24, .cls-25, .cls-26, .cls-27, .cls-28, .cls-29 {
        stroke-miterlimit: 10;
      }

      .cls-1, .cls-2, .cls-3, .cls-4, .cls-6, .cls-7, .cls-8, .cls-9, .cls-10, .cls-11, .cls-12, .cls-13, .cls-14, .cls-15, .cls-16, .cls-17, .cls-18, .cls-19, .cls-20, .cls-21, .cls-22, .cls-23, .cls-24, .cls-25, .cls-26, .cls-27, .cls-28, .cls-29 {
        fill: none;
      }

      .cls-1, .cls-3, .cls-4, .cls-6, .cls-7, .cls-8, .cls-10, .cls-11, .cls-12, .cls-13, .cls-14, .cls-16, .cls-17, .cls-18, .cls-19, .cls-21, .cls-22, .cls-26, .cls-27 {
        stroke: #1c58af;
      }

      .cls-30 {
        font-size: 15.303px;
      }

      .cls-30, .cls-31, .cls-32, .cls-33, .cls-34, .cls-35, .cls-36, .cls-37, .cls-38, .cls-39, .cls-40, .cls-41, .cls-42, .cls-43, .cls-44, .cls-45, .cls-46, .cls-47, .cls-48, .cls-49, .cls-50, .cls-51, .cls-52, .cls-53, .cls-54 {
        font-family: CascadiaCode-Roman, 'Cascadia Code';
        font-variation-settings: 'wght' 400;
      }

      .cls-2, .cls-5, .cls-9, .cls-15, .cls-20, .cls-23, .cls-24, .cls-25, .cls-28, .cls-29 {
        stroke: #000;
      }

      .cls-31 {
        font-size: 6.536px;
      }

      .cls-32 {
        font-size: 20.127px;
      }

      .cls-33 {
        font-size: 9.233px;
      }

      .cls-34 {
        font-size: 7.745px;
      }

      .cls-55 {
        letter-spacing: -.516em;
      }

      .cls-56, .cls-5 {
        fill: #fff;
      }

      .cls-35 {
        font-size: 25.041px;
      }

      .cls-4 {
        stroke-dasharray: 11.952 11.952;
      }

      .cls-36 {
        font-size: 9.662px;
      }

      .cls-6 {
        stroke-dasharray: 11.827 11.827;
      }

      .cls-37 {
        font-size: 6.692px;
      }

      .cls-37, .cls-47, .cls-53 {
        fill: #1c58af;
      }

      .cls-38 {
        font-size: 9.35px;
      }

      .cls-7 {
        stroke-dasharray: 11.986 11.986;
      }

      .cls-8 {
        stroke-dasharray: 12.034 12.034;
      }

      .cls-39 {
        font-size: 16.758px;
      }

      .cls-40 {
        font-size: 19.999px;
      }

      .cls-41 {
        font-size: 21.508px;
      }

      .cls-9 {
        stroke-dasharray: 10.655 10.655;
      }

      .cls-10 {
        stroke-dasharray: 11.993 11.993;
      }

      .cls-11 {
        stroke-dasharray: 12.95 12.95;
      }

      .cls-12 {
        stroke-dasharray: 11.967 11.967;
      }

      .cls-42 {
        font-size: 9.388px;
      }

      .cls-57 {
        fill: #fffff1;
        font-family: MyriadPro-Regular, 'Myriad Pro';
        font-size: 14.011px;
      }

      .cls-13 {
        stroke-dasharray: 12.171 12.171;
      }

      .cls-43 {
        font-size: 14.688px;
      }

      .cls-14 {
        stroke-dasharray: 12.448 12.448;
      }

      .cls-44 {
        font-size: 13.901px;
      }

      .cls-45 {
        font-size: 13.845px;
      }

      .cls-46 {
        font-size: 8.9px;
      }

      .cls-15 {
        stroke-dasharray: 7.445;
      }

      .cls-16 {
        stroke-dasharray: 10.844 10.844;
      }

      .cls-17 {
        stroke-dasharray: 12.002 12.002;
      }

      .cls-18 {
        stroke-dasharray: 12;
      }

      .cls-19 {
        stroke-dasharray: 11.719 11.719;
      }

      .cls-47 {
        font-size: 8.587px;
      }

      .cls-48 {
        font-size: 11.359px;
      }

      .cls-20 {
        stroke-dasharray: 10.919 10.919;
      }

      .cls-21 {
        stroke-dasharray: 12.125 12.125;
      }

      .cls-22 {
        stroke-dasharray: 11.439 11.439;
      }

      .cls-23 {
        stroke-dasharray: 13.033 13.033;
      }

      .cls-49 {
        font-size: 15.475px;
      }

      .cls-24 {
        stroke-dasharray: 8.447;
      }

      .cls-25 {
        stroke-dasharray: 11.965 11.965;
      }

      .cls-58 {
        font-family: FranklinGothic-Medium, 'Franklin Gothic Medium';
        font-size: 7.767px;
        font-weight: 500;
      }

      .cls-50 {
        font-size: 8.81px;
      }

      .cls-51 {
        font-size: 21.274px;
      }

      .cls-26 {
        stroke-dasharray: 11.146 11.146;
      }

      .cls-27 {
        stroke-dasharray: 12.321 12.321;
      }

      .cls-52 {
        font-size: 9.458px;
      }

      .cls-53 {
        font-size: 9.55px;
      }

      .cls-54 {
        font-size: 11.934px;
      }

      .cls-28 {
        stroke-dasharray: 9.795 9.795;
      }

      .cls-29 {
        stroke-dasharray: 11.958 11.958;
      }
    </style>
  </defs>
  <g id="_Слой_1" data-name="Слой 1">
    <path class="cls-5" d="M1606.71,292.248c1.433-2.134,4.715-.678,10.379,1.668,4.439,1.876,8.825,3.69,13.374,5.574,31.832,13.24,67.389,27.257,99.517,40.524,5.868,2.271,5.706,6.657,5.757,13.364.016,6.074.018,12.035.014,18.436.002,18.104-.002,38.198,0,56.251-.003,10.921.006,20.574-.005,27.152-.26,6.059.622,10.21-2.896,13.192-26.032,11.97-90.332,35.359-119.224,47.159-2.388.848-4.987,2.041-6.852.856-1.346-1.344-1.463-3.528-1.647-5.801-.13-2.302-.183-4.91-.187-7.448.007-13.599-.058-35.42.02-50.207.035-2.863.151-5.968.645-8.537,1.732-9.785,12.312-11.478,20.726-14.844,17.881-5.967,22.074-10.061,21.973-29.869.07-9.389-1.071-19.908-8.971-25.643-8.034-6.384-19.594-8.53-26.846-14.91-5.523-5.299-4.973-12.759-5.532-20.47-.411-10.072-1.02-24.354-1.346-34.04-.179-6.486-.09-10.655,1.068-12.356l.033-.049Z"/>
    <text class="cls-41" transform="translate(1669.865 398.796)"><tspan x="0" y="0">ALU</tspan></text>
    <rect class="cls-5" x="1675.322" y="160.019" width="134.226" height="59.913" rx="17.393" ry="17.393"/>
    <text class="cls-43" transform="translate(1692.856 179.58)"><tspan x="0" y="0">SR</tspan></text>
    <g>
      <path class="cls-56" d="M1716.94,189.902h9.848c2.683,0,4.861,2.178,4.861,4.861v6.629c0,2.683-2.178,4.861-4.861,4.861h-9.847c-2.684,0-4.862-2.179-4.862-4.862v-6.628c0-2.683,2.178-4.861,4.861-4.861Z"/>
      <path d="M1726.788,190.402c2.405,0,4.362,1.957,4.362,4.362v6.628c0,2.405-1.957,4.362-4.362,4.362h-9.848c-2.405,0-4.362-1.957-4.362-4.362v-6.628c0-2.405,1.957-4.362,4.362-4.362h9.848M1726.788,189.402h-9.848c-2.961,0-5.362,2.401-5.362,5.362v6.628c0,2.961,2.401,5.362,5.362,5.362h9.848c2.961,0,5.362-2.401,5.362-5.362v-6.628c0-2.961-2.401-5.362-5.362-5.362h0Z"/>
    </g>
    <g>
      <path class="cls-56" d="M1737.511,189.902h9.848c2.683,0,4.861,2.178,4.861,4.861v6.629c0,2.683-2.178,4.861-4.861,4.861h-9.848c-2.684,0-4.862-2.179-4.862-4.862v-6.627c0-2.683,2.179-4.862,4.862-4.862Z"/>
      <path d="M1747.359,190.402c2.405,0,4.362,1.957,4.362,4.362v6.628c0,2.405-1.957,4.362-4.362,4.362h-9.848c-2.405,0-4.362-1.957-4.362-4.362v-6.628c0-2.405,1.957-4.362,4.362-4.362h9.848M1747.359,189.402h-9.848c-2.961,0-5.362,2.401-5.362,5.362v6.628c0,2.961,2.401,5.362,5.362,5.362h9.848c2.961,0,5.362-2.401,5.362-5.362v-6.628c0-2.961-2.401-5.362-5.362-5.362h0Z"/>
    </g>
    <g>
      <rect class="cls-56" x="1691.508" y="189.902" width="19.571" height="16.352" rx="4.862" ry="4.862"/>
      <path d="M1706.217,190.402c2.405,0,4.362,1.957,4.362,4.362v6.628c0,2.405-1.957,4.362-4.362,4.362h-9.848c-2.405,0-4.362-1.957-4.362-4.362v-6.628c0-2.405,1.957-4.362,4.362-4.362h9.848M1706.217,189.402h-9.848c-2.961,0-5.362,2.401-5.362,5.362v6.628c0,2.961,2.401,5.362,5.362,5.362h9.848c2.961,0,5.362-2.401,5.362-5.362v-6.628c0-2.961-2.401-5.362-5.362-5.362h0Z"/>
    </g>
    <g>
      <path class="cls-56" d="M1757.654,189.902h9.847c2.683,0,4.861,2.178,4.861,4.861v6.629c0,2.683-2.178,4.861-4.861,4.861h-9.848c-2.683,0-4.861-2.178-4.861-4.861v-6.628c0-2.684,2.179-4.862,4.862-4.862Z"/>
      <path d="M1767.501,190.402c2.405,0,4.362,1.957,4.362,4.362v6.628c0,2.405-1.957,4.362-4.362,4.362h-9.848c-2.405,0-4.362-1.957-4.362-4.362v-6.628c0-2.405,1.957-4.362,4.362-4.362h9.848M1767.501,189.402h-9.848c-2.961,0-5.362,2.401-5.362,5.362v6.628c0,2.961,2.401,5.362,5.362,5.362h9.848c2.961,0,5.362-2.401,5.362-5.362v-6.628c0-2.961-2.401-5.362-5.362-5.362h0Z"/>
    </g>
    <text class="cls-58" transform="translate(1696.789 200.361)"><tspan x="0" y="0">Z</tspan></text>
    <text class="cls-58" transform="translate(1718.924 200.471)"><tspan x="0" y="0">N</tspan></text>
    <text class="cls-58" transform="translate(1741.208 200.271)"><tspan x="0" y="0">V</tspan></text>
    <text class="cls-58" transform="translate(1760.338 200.271)"><tspan x="0" y="0">C</tspan></text>
    <rect class="cls-5" x="201.195" y="328.585" width="81.564" height="65.29" rx="12.355" ry="12.355"/>
    <text class="cls-35" transform="translate(215.495 357.828)"><tspan x="0" y="0">PC</tspan></text>
    <text class="cls-57" transform="translate(693.99 890.781)"><tspan x="0" y="0">flags/CU</tspan></text>
    <rect class="cls-5" x="826.887" y="319.248" width="81.564" height="56.028" rx="12.355" ry="12.355"/>
    <text class="cls-40" transform="translate(840.996 346.711)"><tspan x="0" y="0">IR</tspan></text>
    <rect class="cls-5" x="1033.512" y="586.944" width="81.564" height="58.787" rx="12.355" ry="12.355"/>
    <text class="cls-35" transform="translate(1051.259 618.485)"><tspan x="0" y="0">EA</tspan></text>
    <line class="cls-2" x1="1404.891" y1="335.259" x2="1520.614" y2="335.259"/>
    <line class="cls-2" x1="763.868" y1="349.586" x2="826.887" y2="349.586"/>
    <line class="cls-2" x1="867.67" y1="319.248" x2="867.67" y2="135.549"/>
    <line class="cls-2" x1="953.235" y1="345.054" x2="997.732" y2="345.054"/>
    <line class="cls-2" x1="1507.056" y1="515.537" x2="1507.056" y2="446.717"/>
    <line class="cls-2" x1="1507.056" y1="515.066" x2="1536.062" y2="499"/>
    <line class="cls-2" x1="1507.056" y1="446.4" x2="1535.742" y2="464.8"/>
    <line class="cls-2" x1="1535.742" y1="464.8" x2="1535.742" y2="499.546"/>
    <line class="cls-2" x1="1535.742" y1="485.523" x2="1605.711" y2="485.523"/>
    <line class="cls-2" x1="1115.077" y1="616.338" x2="1470.141" y2="616.338"/>
    <line class="cls-2" x1="1507.056" y1="503.697" x2="1470.141" y2="503.697"/>
    <line class="cls-2" x1="1470.141" y1="616.338" x2="1470.141" y2="503.456"/>
    <text class="cls-30" transform="translate(1157.149 609.681)"><tspan x="0" y="0">SignImm</tspan></text>
    <line class="cls-2" x1="1404.647" y1="398.001" x2="1484.594" y2="398.001"/>
    <line class="cls-2" x1="1507.056" y1="457.617" x2="1485.125" y2="457.617"/>
    <line class="cls-2" x1="1484.594" y1="398.001" x2="1484.594" y2="458.073"/>
    <rect class="cls-5" x="1780.833" y="383.891" width="81.564" height="48.791" rx="12.355" ry="12.355"/>
    <text class="cls-32" transform="translate(1804.453 411.809)"><tspan x="0" y="0">RES</tspan></text>
    <line class="cls-2" x1="1735.753" y1="404.065" x2="1780.833" y2="404.065"/>
    <line class="cls-2" x1="1862.398" y1="404.065" x2="1958.85" y2="404.065"/>
    <line class="cls-2" x1="344.594" y1="383.673" x2="344.594" y2="332.22"/>
    <line class="cls-2" x1="344.594" y1="383.321" x2="366.281" y2="371.309"/>
    <line class="cls-2" x1="344.594" y1="331.983" x2="366.041" y2="345.739"/>
    <line class="cls-2" x1="366.041" y1="345.739" x2="366.041" y2="371.717"/>
    <line class="cls-2" x1="282.759" y1="345.739" x2="344.594" y2="345.739"/>
    <line class="cls-2" x1="366.041" y1="358.728" x2="408.1" y2="358.728"/>
    <line class="cls-2" x1="1958.85" y1="404.065" x2="1958.85" y2="787.301"/>
    <line class="cls-2" x1="344.594" y1="368.2" x2="306.48" y2="368.2"/>
    <line class="cls-2" x1="1958.85" y1="787.301" x2="306.48" y2="787.301"/>
    <line class="cls-2" x1="306.48" y1="368.2" x2="306.48" y2="787.301"/>
    <line class="cls-2" x1="1554.445" y1="346.736" x2="1554.445" y2="289.579"/>
    <line class="cls-2" x1="1554.445" y1="346.346" x2="1578.536" y2="333.002"/>
    <line class="cls-2" x1="1554.445" y1="289.315" x2="1578.27" y2="304.597"/>
    <line class="cls-2" x1="1578.27" y1="304.597" x2="1578.27" y2="333.455"/>
    <line class="cls-2" x1="1578.536" y1="318.158" x2="1606.115" y2="318.158"/>
    <line class="cls-2" x1="1513.501" y1="335.105" x2="1554.445" y2="335.105"/>
    <line class="cls-2" x1="313.677" y1="345.739" x2="313.677" y2="237.062"/>
    <line class="cls-2" x1="1554.445" y1="304.597" x2="1534.836" y2="304.597"/>
    <line class="cls-2" x1="313.677" y1="237.062" x2="1520.614" y2="237.062"/>
    <line class="cls-2" x1="1520.04" y1="318.312" x2="1520.04" y2="237.062"/>
    <text class="cls-50" transform="translate(1555.817 307.31)"><tspan x="0" y="0">00</tspan></text>
    <text class="cls-42" transform="translate(1556.316 335.941)"><tspan x="0" y="0">10</tspan></text>
    <text class="cls-36" transform="translate(346.58 349.475)"><tspan x="0" y="0">0</tspan></text>
    <text class="cls-38" transform="translate(347.127 372.11)"><tspan x="0" y="0">1</tspan></text>
    <line class="cls-2" x1="201.195" y1="361.231" x2="189.718" y2="361.231"/>
    <text class="cls-33" transform="translate(1508.661 463.417)"><tspan x="0" y="0">00</tspan></text>
    <text class="cls-33" transform="translate(1509.706 503.709)"><tspan x="0" y="0">11</tspan></text>
    <line class="cls-2" x1="953.235" y1="345.054" x2="953.235" y2="372.509"/>
    <line class="cls-2" x1="995.051" y1="372.509" x2="953.235" y2="372.509"/>
    <line class="cls-2" x1="909.129" y1="345.054" x2="953.81" y2="345.054"/>
    <line class="cls-2" x1="953.235" y1="372.509" x2="953.235" y2="402.222"/>
    <line class="cls-2" x1="953.235" y1="402.222" x2="953.235" y2="616.338"/>
    <line class="cls-2" x1="1033.512" y1="618.485" x2="953.235" y2="618.485"/>
    <line class="cls-2" x1="953.235" y1="616.338" x2="953.235" y2="618.924"/>
    <rect class="cls-5" x="826.887" y="419.718" width="81.564" height="56.028" rx="12.355" ry="12.355"/>
    <text class="cls-40" transform="translate(840.996 447.181)"><tspan x="0" y="0">DR</tspan></text>
    <line class="cls-2" x1="762.576" y1="349.586" x2="765.185" y2="349.586"/>
    <line class="cls-2" x1="793.442" y1="349.591" x2="793.442" y2="448.224"/>
    <line class="cls-2" x1="826.887" y1="447.732" x2="794.076" y2="447.732"/>
    <line class="cls-2" x1="793.517" y1="447.732" x2="795.085" y2="447.732"/>
    <line class="cls-2" x1="1436.551" y1="454.57" x2="1436.551" y2="559.466"/>
    <line class="cls-2" x1="382.976" y1="559.466" x2="1436.551" y2="559.466"/>
    <line class="cls-2" x1="966.956" y1="473.813" x2="966.956" y2="426.658"/>
    <line class="cls-2" x1="966.956" y1="473.491" x2="986.83" y2="462.482"/>
    <line class="cls-2" x1="966.956" y1="426.441" x2="986.611" y2="439.048"/>
    <line class="cls-2" x1="986.611" y1="439.048" x2="986.611" y2="462.856"/>
    <text class="cls-52" transform="translate(969.719 442.778)"><tspan x="0" y="0">0</tspan></text>
    <text class="cls-34" transform="translate(969.939 465.555)"><tspan x="0" y="0">1</tspan></text>
    <line class="cls-2" x1="908.452" y1="463.391" x2="966.956" y2="463.391"/>
    <line class="cls-2" x1="924.257" y1="787.301" x2="924.257" y2="442.872"/>
    <line class="cls-2" x1="966.956" y1="442.059" x2="924.257" y2="442.059"/>
    <line class="cls-2" x1="924.257" y1="443.153" x2="924.257" y2="441.573"/>
    <line class="cls-2" x1="953.235" y1="402.222" x2="995.051" y2="402.222"/>
    <text class="cls-33" transform="translate(1509.183 476.599)"><tspan x="0" y="0">01</tspan></text>
    <line class="cls-2" x1="1436.551" y1="454.57" x2="1484.594" y2="454.57"/>
    <line class="cls-2" x1="337.584" y1="340.172" x2="344.367" y2="345.739"/>
    <line class="cls-2" x1="337.584" y1="350.998" x2="344.367" y2="345.597"/>
    <line class="cls-2" x1="401.318" y1="353.315" x2="408.1" y2="358.883"/>
    <line class="cls-2" x1="401.318" y1="364.141" x2="408.1" y2="358.74"/>
    <line class="cls-2" x1="337.812" y1="362.787" x2="344.594" y2="368.355"/>
    <line class="cls-2" x1="337.812" y1="373.614" x2="344.594" y2="368.212"/>
    <line class="cls-2" x1="1547.351" y1="329.691" x2="1554.133" y2="335.259"/>
    <line class="cls-2" x1="1547.351" y1="340.518" x2="1554.133" y2="335.116"/>
    <line class="cls-2" x1="1547.885" y1="299.184" x2="1554.668" y2="304.752"/>
    <line class="cls-2" x1="1547.885" y1="310.011" x2="1554.668" y2="304.609"/>
    <line class="cls-2" x1="1599.332" y1="312.745" x2="1606.115" y2="318.312"/>
    <line class="cls-2" x1="1599.332" y1="323.571" x2="1606.115" y2="318.169"/>
    <line class="cls-2" x1="1598.568" y1="479.822" x2="1605.711" y2="485.685"/>
    <line class="cls-2" x1="1598.568" y1="491.223" x2="1605.711" y2="485.535"/>
    <line class="cls-2" x1="1500.235" y1="451.917" x2="1507.378" y2="457.78"/>
    <line class="cls-2" x1="1500.235" y1="463.318" x2="1507.378" y2="457.63"/>
    <line class="cls-2" x1="1499.913" y1="497.996" x2="1507.056" y2="503.86"/>
    <line class="cls-2" x1="1499.913" y1="509.398" x2="1507.056" y2="503.709"/>
    <line class="cls-2" x1="960.173" y1="436.646" x2="966.956" y2="442.214"/>
    <line class="cls-2" x1="960.173" y1="447.473" x2="966.956" y2="442.071"/>
    <line class="cls-2" x1="960.173" y1="457.978" x2="966.956" y2="463.546"/>
    <line class="cls-2" x1="960.173" y1="468.804" x2="966.956" y2="463.403"/>
    <line class="cls-2" x1="988.269" y1="396.809" x2="995.051" y2="402.376"/>
    <line class="cls-2" x1="988.269" y1="407.635" x2="995.051" y2="402.233"/>
    <line class="cls-2" x1="988.474" y1="367.096" x2="995.256" y2="372.663"/>
    <line class="cls-2" x1="988.474" y1="377.922" x2="995.256" y2="372.52"/>
    <line class="cls-2" x1="988.474" y1="339.641" x2="995.256" y2="345.208"/>
    <line class="cls-2" x1="988.474" y1="350.467" x2="995.256" y2="345.066"/>
    <line class="cls-2" x1="819.76" y1="442.319" x2="826.543" y2="447.887"/>
    <line class="cls-2" x1="819.76" y1="453.145" x2="826.543" y2="447.744"/>
    <line class="cls-2" x1="820.105" y1="344.178" x2="826.887" y2="349.745"/>
    <line class="cls-2" x1="820.105" y1="355.004" x2="826.887" y2="349.602"/>
    <line class="cls-2" x1="862.257" y1="142.332" x2="867.824" y2="135.549"/>
    <line class="cls-2" x1="873.083" y1="142.332" x2="867.681" y2="135.549"/>
    <line class="cls-2" x1="401.318" y1="435.625" x2="408.1" y2="441.193"/>
    <line class="cls-2" x1="401.318" y1="446.451" x2="408.1" y2="441.05"/>
    <line class="cls-2" x1="194.412" y1="355.817" x2="201.195" y2="361.385"/>
    <line class="cls-2" x1="194.412" y1="366.644" x2="201.195" y2="361.242"/>
    <line class="cls-2" x1="1774.051" y1="398.652" x2="1780.833" y2="404.22"/>
    <line class="cls-2" x1="1774.051" y1="409.478" x2="1780.833" y2="404.077"/>
    <line class="cls-2" x1="1026.73" y1="613.072" x2="1033.512" y2="618.639"/>
    <line class="cls-2" x1="1026.73" y1="623.898" x2="1033.512" y2="618.497"/>
    <line class="cls-2" x1="986.611" y1="450.748" x2="995.051" y2="450.748"/>
    <line class="cls-2" x1="988.823" y1="445.539" x2="995.606" y2="451.107"/>
    <line class="cls-2" x1="988.823" y1="456.365" x2="995.606" y2="450.964"/>
    <line class="cls-2" x1="1736.359" y1="373.191" x2="1747.848" y2="373.191"/>
    <line class="cls-2" x1="1747.848" y1="219.932" x2="1747.848" y2="373.191"/>
    <line class="cls-2" x1="1742.435" y1="229.19" x2="1748.003" y2="219.932"/>
    <line class="cls-2" x1="1753.262" y1="229.19" x2="1747.86" y2="219.932"/>
    <line class="cls-2" x1="1741.223" y1="160.019" x2="1741.223" y2="101.353"/>
    <line class="cls-2" x1="1042.599" y1="99.102" x2="1741.464" y2="99.102"/>
    <line class="cls-2" x1="1741.464" y1="142.332" x2="1741.464" y2="99.102"/>
    <line class="cls-2" x1="1049.382" y1="104.515" x2="1042.599" y2="98.948"/>
    <line class="cls-2" x1="1049.382" y1="93.689" x2="1042.599" y2="99.09"/>
    <line class="cls-2" x1="1821.616" y1="383.891" x2="1821.616" y2="262.371"/>
    <line class="cls-2" x1="1554.445" y1="318.158" x2="1520.04" y2="318.158"/>
    <line class="cls-2" x1="1821.616" y1="262.371" x2="1533.973" y2="262.371"/>
    <line class="cls-2" x1="1533.973" y1="262.371" x2="1533.973" y2="304.752"/>
    <line class="cls-2" x1="1535.024" y1="304.597" x2="1533.444" y2="304.597"/>
    <text class="cls-50" transform="translate(1556.213 321.118)"><tspan x="0" y="0">01</tspan></text>
    <line class="cls-2" x1="1547.662" y1="312.899" x2="1554.445" y2="318.467"/>
    <line class="cls-2" x1="1547.662" y1="323.725" x2="1554.445" y2="318.324"/>
    <line class="cls-2" x1="237.747" y1="393.876" x2="237.747" y2="430.522"/>
    <line class="cls-2" x1="373.852" y1="467.881" x2="373.852" y2="416.428"/>
    <line class="cls-2" x1="373.852" y1="467.529" x2="395.538" y2="455.517"/>
    <line class="cls-2" x1="373.852" y1="416.191" x2="395.299" y2="429.947"/>
    <line class="cls-2" x1="395.299" y1="429.947" x2="395.299" y2="455.925"/>
    <text class="cls-36" transform="translate(375.837 433.683)"><tspan x="0" y="0">0</tspan></text>
    <text class="cls-38" transform="translate(376.385 456.318)"><tspan x="0" y="0">1</tspan></text>
    <line class="cls-2" x1="395.24" y1="441.193" x2="407.395" y2="441.193"/>
    <line class="cls-2" x1="382.976" y1="559.466" x2="360.524" y2="559.466"/>
    <line class="cls-2" x1="373.852" y1="453.692" x2="360.524" y2="453.692"/>
    <line class="cls-2" x1="360.524" y1="559.466" x2="360.524" y2="453.692"/>
    <line class="cls-2" x1="373.852" y1="429.947" x2="237.747" y2="429.947"/>
    <line class="cls-2" x1="867.67" y1="475.746" x2="867.67" y2="529.458"/>
    <text class="cls-33" transform="translate(1509.706 489.798)"><tspan x="0" y="0">10</tspan></text>
    <line class="cls-2" x1="1507.056" y1="487.809" x2="1421.391" y2="487.809"/>
    <line class="cls-2" x1="867.67" y1="529.458" x2="1421.391" y2="529.458"/>
    <line class="cls-2" x1="1421.391" y1="487.809" x2="1421.391" y2="529.458"/>
    <line class="cls-2" x1="1499.913" y1="482.109" x2="1507.056" y2="487.972"/>
    <line class="cls-2" x1="1499.913" y1="493.51" x2="1507.056" y2="487.822"/>
    <line class="cls-2" x1="1042.599" y1="68.024" x2="1428.141" y2="68.024"/>
    <line class="cls-2" x1="1507.056" y1="473.464" x2="1425.077" y2="473.464"/>
    <line class="cls-2" x1="1425.077" y1="66.421" x2="1425.077" y2="473.464"/>
    <line class="cls-2" x1="367.069" y1="424.534" x2="373.852" y2="430.102"/>
    <line class="cls-2" x1="367.069" y1="435.36" x2="373.852" y2="429.959"/>
    <line class="cls-2" x1="367.069" y1="448.279" x2="373.852" y2="453.847"/>
    <line class="cls-2" x1="367.069" y1="459.106" x2="373.852" y2="453.704"/>
    <line class="cls-2" x1="174.816" y1="250.77" x2="199.806" y2="250.77"/>
    <line class="cls-2" x1="212.252" y1="219.557" x2="199.375" y2="251.057"/>
    <line class="cls-2" x1="162.178" y1="219.557" x2="174.816" y2="251.297"/>
    <line class="cls-2" x1="184.439" y1="219.557" x2="162.178" y2="219.557"/>
    <line class="cls-2" x1="188.779" y1="219.557" x2="212.444" y2="219.557"/>
    <line class="cls-2" x1="186.536" y1="223.814" x2="189.217" y2="219.219"/>
    <line class="cls-2" x1="184.191" y1="219.697" x2="186.919" y2="223.814"/>
    <line class="cls-2" x1="252.215" y1="328.585" x2="252.215" y2="184.521"/>
    <line class="cls-2" x1="199.375" y1="219.697" x2="199.375" y2="184.521"/>
    <line class="cls-2" x1="252.215" y1="184.521" x2="199.375" y2="184.521"/>
    <line class="cls-2" x1="779.364" y1="76.904" x2="174.816" y2="76.904"/>
    <line class="cls-2" x1="173.308" y1="219.557" x2="173.308" y2="76.904"/>
    <line class="cls-2" x1="175.787" y1="76.904" x2="172.915" y2="76.904"/>
    <text class="cls-36" transform="translate(177.063 237.844)"><tspan x="0" y="0">sum</tspan></text>
    <text class="cls-54" transform="translate(258.259 256.553)"><tspan x="0" y="0">inc</tspan></text>
    <line class="cls-2" x1="204.788" y1="212.915" x2="199.22" y2="219.697"/>
    <line class="cls-2" x1="193.962" y1="212.915" x2="199.363" y2="219.697"/>
    <line class="cls-2" x1="178.721" y1="212.626" x2="173.154" y2="219.409"/>
    <line class="cls-2" x1="167.895" y1="212.626" x2="173.297" y2="219.409"/>
    <line class="cls-2" x1="1767.008" y1="403.383" x2="1767.008" y2="364.399"/>
    <line class="cls-2" x1="167.895" y1="349.475" x2="162.178" y2="349.475"/>
    <line class="cls-2" x1="186.536" y1="250.77" x2="186.536" y2="293.789"/>
    <line class="cls-2" x1="162.178" y1="349.475" x2="162.178" y2="293.789"/>
    <line class="cls-2" x1="186.536" y1="293.789" x2="162.178" y2="293.789"/>
    <line class="cls-2" x1="1767.008" y1="364.399" x2="1925.114" y2="364.399"/>
    <line class="cls-2" x1="168.032" y1="374.476" x2="152.242" y2="374.476"/>
    <line class="cls-2" x1="1925.114" y1="364.399" x2="1925.114" y2="729.811"/>
    <line class="cls-2" x1="152.242" y1="374.476" x2="152.242" y2="729.811"/>
    <line class="cls-2" x1="1925.114" y1="729.811" x2="152.242" y2="729.811"/>
    <line class="cls-2" x1="163.68" y1="345.626" x2="168.503" y2="349.585"/>
    <line class="cls-2" x1="163.68" y1="353.324" x2="168.503" y2="349.484"/>
    <line class="cls-2" x1="163.072" y1="370.627" x2="167.895" y2="374.585"/>
    <line class="cls-2" x1="163.072" y1="378.325" x2="167.895" y2="374.484"/>
    <text class="cls-36" transform="translate(169.743 352.954)"><tspan x="0" y="0">0</tspan></text>
    <text class="cls-36" transform="translate(170.29 377.943)"><tspan x="0" y="0">1</tspan></text>
  </g>
  <g id="_Слой_2" data-name="Слой 2">
    <rect class="cls-5" x="995.051" y="285.616" width="409.596" height="216.519" rx="51.497" ry="51.497"/>
    <text class="cls-35" transform="translate(1113.22 340.151)"><tspan x="0" y="0">Register File</tspan></text>
    <rect class="cls-5" x="407.395" y="285.5" width="377.543" height="252.85" rx="24.894" ry="24.894"/>
    <text class="cls-45" transform="translate(420.543 525.769)"><tspan x="0" y="0">INSTR/DATA MEMORY</tspan></text>
    <rect class="cls-5" x="779.364" y=".5" width="263.235" height="135.049" rx="24.894" ry="24.894"/>
    <text class="cls-51" transform="translate(796.352 121.704)"><tspan x="0" y="0">Control Unit</tspan></text>
    <line class="cls-2" x1="831.528" y1="99.102" x2="831.528" y2="74.4"/>
    <line class="cls-2" x1="938.858" y1="39.868" x2="938.858" y2="15.708"/>
    <line class="cls-2" x1="831.528" y1="39.868" x2="831.528" y2="15.708"/>
    <line class="cls-2" x1="938.858" y1="15.708" x2="831.528" y2="15.708"/>
    <line class="cls-2" x1="979.64" y1="53.432" x2="1003.039" y2="53.432"/>
    <g>
      <line class="cls-2" x1="529.258" y1="356.719" x2="529.258" y2="362.719"/>
      <line class="cls-20" x1="529.258" y1="373.638" x2="529.258" y2="411.856"/>
      <line class="cls-2" x1="529.258" y1="417.315" x2="529.258" y2="423.315"/>
    </g>
    <g>
      <line class="cls-2" x1="631.017" y1="422.824" x2="631.017" y2="416.824"/>
      <line class="cls-25" x1="631.017" y1="404.859" x2="631.017" y2="362.981"/>
      <line class="cls-2" x1="631.017" y1="356.998" x2="631.017" y2="350.998"/>
    </g>
    <g>
      <line class="cls-2" x1="570.04" y1="348.297" x2="576.04" y2="348.297"/>
      <line class="cls-28" x1="585.836" y1="348.297" x2="620.12" y2="348.297"/>
      <line class="cls-2" x1="625.017" y1="348.297" x2="631.017" y2="348.297"/>
    </g>
    <line class="cls-2" x1="631.017" y1="350.998" x2="631.017" y2="347.751"/>
    <g>
      <line class="cls-2" x1="570.04" y1="327.613" x2="576.04" y2="327.613"/>
      <line class="cls-23" x1="589.074" y1="327.613" x2="686.824" y2="327.613"/>
      <line class="cls-2" x1="693.34" y1="327.613" x2="699.34" y2="327.613"/>
    </g>
    <g>
      <line class="cls-2" x1="701.996" y1="423.315" x2="701.996" y2="417.315"/>
      <line class="cls-29" x1="701.996" y1="405.358" x2="701.996" y2="339.591"/>
      <line class="cls-2" x1="701.996" y1="333.613" x2="701.996" y2="327.613"/>
    </g>
    <line class="cls-2" x1="699.277" y1="327.613" x2="702.508" y2="327.613"/>
    <line class="cls-2" x1="720.947" y1="423.315" x2="720.947" y2="306.902"/>
    <line class="cls-2" x1="649.968" y1="422.824" x2="649.968" y2="308.168"/>
    <text class="cls-39" transform="translate(1219.057 398.001)"><tspan x="0" y="0">A7/SP</tspan></text>
    <line class="cls-2" x1="452.198" y1="359.825" x2="511.943" y2="359.825"/>
    <line class="cls-2" x1="511.943" y1="359.825" x2="511.943" y2="423.315"/>
    <line class="cls-2" x1="641.015" y1="423.077" x2="641.015" y2="334.485"/>
    <line class="cls-2" x1="713.781" y1="423.077" x2="713.781" y2="356.719"/>
    <line class="cls-2" x1="547.823" y1="473.132" x2="547.823" y2="508.357"/>
    <line class="cls-2" x1="760.155" y1="365.594" x2="743.908" y2="365.594"/>
    <line class="cls-2" x1="547.823" y1="508.357" x2="743.908" y2="508.357"/>
    <line class="cls-2" x1="743.908" y1="365.594" x2="743.908" y2="508.357"/>
    <line class="cls-2" x1="713.781" y1="356.719" x2="713.781" y2="346.393"/>
    <line class="cls-2" x1="760.155" y1="346.711" x2="713.781" y2="346.711"/>
    <line class="cls-2" x1="641.015" y1="334.485" x2="760.155" y2="334.485"/>
    <line class="cls-15" x1="701.996" y1="327.613" x2="701.996" y2="320.167"/>
    <line class="cls-24" x1="767.273" y1="328.614" x2="767.273" y2="320.167"/>
    <g>
      <line class="cls-2" x1="701.996" y1="320.167" x2="707.996" y2="320.167"/>
      <line class="cls-9" x1="718.651" y1="320.167" x2="755.945" y2="320.167"/>
      <line class="cls-2" x1="761.273" y1="320.167" x2="767.273" y2="320.167"/>
    </g>
  </g>
  <g id="_Слой_4" data-name="Слой 4">
    <rect class="cls-5" x="791.863" y="39.868" width="81.564" height="30.021" rx="12.355" ry="12.355"/>
    <text class="cls-48" transform="translate(808.805 57.216)"><tspan x="0" y="0">Decoder</tspan></text>
    <rect class="cls-5" x="898.075" y="39.868" width="81.564" height="30.021" rx="12.355" ry="12.355"/>
    <line class="cls-2" x1="873.427" y1="54.878" x2="898.075" y2="54.878"/>
    <text class="cls-48" transform="translate(929.529 57.329)"><tspan x="0" y="0">Sr</tspan></text>
    <text class="cls-46" transform="translate(1001.389 50.705)"><tspan x="0" y="0">Управ.</tspan><tspan x="0" y="10.68">сигналы</tspan></text>
    <text class="cls-44" transform="translate(1010.042 352.298)"><tspan x="0" y="0">RA1</tspan></text>
    <text class="cls-44" transform="translate(1010.994 379.072)"><tspan x="0" y="0">RA2</tspan></text>
    <text class="cls-44" transform="translate(1011.945 405.668)"><tspan x="0" y="0">WA</tspan></text>
    <text class="cls-44" transform="translate(1012.081 456.477)"><tspan x="0" y="0">WD</tspan></text>
    <text class="cls-49" transform="translate(1369.468 349.195)"><tspan x="0" y="0">RD1</tspan></text>
    <text class="cls-49" transform="translate(1370.407 404.065)"><tspan x="0" y="0">RD2</tspan></text>
    <text class="cls-44" transform="translate(412.349 355.356)"><tspan x="0" y="0">RA1</tspan></text>
    <text class="cls-44" transform="translate(420.407 438.409)"><tspan x="0" y="0">WD</tspan></text>
    <text class="cls-49" transform="translate(790.347 346.711)"><tspan x="0" y="0">RD</tspan></text>
    <text class="cls-44" transform="translate(631.017 304.12)"><tspan x="0" y="0">Input</tspan></text>
    <text class="cls-44" transform="translate(697.457 304.227)"><tspan x="0" y="0">Output</tspan></text>
    <text class="cls-53" transform="translate(1213.439 279.001)"><tspan x="0" y="0">Reg.Write/Read</tspan></text>
    <text class="cls-53" transform="translate(1474.551 201.142)"><tspan x="0" y="0">AluCon2</tspan></text>
    <text class="cls-47" transform="translate(1546.909 137.45)"><tspan x="0" y="0">AlCon</tspan></text>
    <text class="cls-53" transform="translate(1759.944 84.919)"><tspan x="0" y="0">ld</tspan></text>
    <text class="cls-53" transform="translate(1625.046 202.218)"><tspan x="0" y="0">ALUOp</tspan></text>
    <text class="cls-53" transform="translate(888.32 295.587)"><tspan x="0" y="0">R/W</tspan></text>
    <text class="cls-53" transform="translate(978.683 645.108)"><tspan x="0" y="0">ld</tspan></text>
    <text class="cls-53" transform="translate(390.074 110.237)"><tspan x="0" y="0">MemCon2</tspan></text>
    <text class="cls-53" transform="translate(300.616 133.751)"><tspan x="0" y="0">MemCon</tspan></text>
    <text class="cls-53" transform="translate(217.397 149.395)"><tspan x="0" y="0">PC</tspan></text>
    <text class="cls-53" transform="translate(513.107 280.111)"><tspan x="0" y="0">Mem R/W</tspan></text>
    <text class="cls-53" transform="translate(981.042 290.045)"><tspan x="0" y="0">RFCon</tspan></text>
    <text class="cls-37" transform="translate(181.555 490.046)"><tspan x="0" y="0">PCsig</tspan></text>
  </g>
  <g id="_Слой_5" data-name="Слой 5">
    <rect class="cls-5" x="488.476" y="306.902" width="81.564" height="49.817" rx="12.355" ry="12.355"/>
    <line class="cls-2" x1="407.395" y1="359.825" x2="452.726" y2="359.825"/>
    <line class="cls-2" x1="488.476" y1="332.22" x2="452.726" y2="332.22"/>
    <line class="cls-2" x1="452.726" y1="359.825" x2="452.726" y2="331.983"/>
    <g>
      <path d="M500.203,320.741l2.044-7.068h1.446l2.044,7.068h-1.047l-1.675-6.212h-.09l-1.675,6.212h-1.047ZM501.151,319.019v-.946h3.59v.946h-3.59Z"/>
      <path d="M506.66,320.741v-7.068h.997v7.068h-.997ZM507.587,320.741v-.946h.788c.728,0,1.276-.208,1.643-.622.367-.415.551-1.037.551-1.867,0-.899-.184-1.572-.551-2.019s-.915-.669-1.643-.669h-.768l-.12-.946h.887c2.161,0,3.241,1.211,3.241,3.634,0,2.29-1.081,3.435-3.241,3.435h-.788Z"/>
      <path d="M512.643,320.741v-7.068h.997v7.068h-.997ZM513.571,320.741v-.946h.788c.728,0,1.276-.208,1.643-.622.367-.415.551-1.037.551-1.867,0-.899-.184-1.572-.551-2.019s-.915-.669-1.643-.669h-.768l-.12-.946h.887c2.161,0,3.241,1.211,3.241,3.634,0,2.29-1.081,3.435-3.241,3.435h-.788Z"/>
      <path d="M518.626,320.741v-7.068h.997v7.068h-.997ZM519.553,318.053v-.946h1.506c.396,0,.704-.104.925-.313.221-.209.332-.503.332-.881,0-.415-.111-.734-.332-.958-.221-.224-.529-.336-.925-.336h-1.486l-.12-.946h1.605c.734,0,1.302.186,1.703.558.4.372.601.899.601,1.583,0,.71-.2,1.261-.601,1.652-.401.392-.968.587-1.703.587h-1.506ZM522.426,320.741l-1.586-3.325h1.097l1.685,3.325h-1.196Z"/>
      <path d="M524.709,320.741v-7.068h.997v7.068h-.997ZM524.709,314.619v-.946h4.687v.946h-4.687ZM524.709,317.675v-.945h3.789v.945h-3.789ZM524.709,320.741v-.946h4.687v.946h-4.687Z"/>
      <path d="M532.641,320.841c-.402,0-.778-.032-1.129-.097-.351-.064-.676-.162-.975-.291l.13-1.005c.366.156.719.274,1.06.355.34.082.672.122.995.122.465,0,.811-.081,1.037-.244s.339-.41.339-.742c0-.421-.216-.73-.648-.926l-1.227-.558c-.482-.219-.852-.483-1.109-.792-.258-.309-.387-.692-.387-1.15,0-.617.186-1.095.559-1.434.372-.338.899-.508,1.581-.508.475,0,.896.07,1.261.209.366.139.718.367,1.057.682l-.698.707c-.293-.239-.566-.413-.82-.52-.254-.108-.52-.162-.795-.162-.342,0-.607.082-.795.247-.188.164-.282.407-.282.729,0,.229.062.416.185.56s.304.273.543.386l1.037.488c.525.246.924.523,1.197.832s.409.705.409,1.189c0,.641-.208,1.121-.625,1.441-.417.32-1.05.48-1.897.48Z"/>
      <path d="M538.625,320.841c-.402,0-.778-.032-1.129-.097-.351-.064-.676-.162-.975-.291l.13-1.005c.366.156.719.274,1.06.355.34.082.672.122.995.122.465,0,.811-.081,1.037-.244s.339-.41.339-.742c0-.421-.216-.73-.648-.926l-1.227-.558c-.482-.219-.852-.483-1.109-.792-.258-.309-.387-.692-.387-1.15,0-.617.186-1.095.559-1.434.372-.338.899-.508,1.581-.508.475,0,.896.07,1.261.209.366.139.718.367,1.057.682l-.698.707c-.293-.239-.566-.413-.82-.52-.254-.108-.52-.162-.795-.162-.342,0-.607.082-.795.247-.188.164-.282.407-.282.729,0,.229.062.416.185.56s.304.273.543.386l1.037.488c.525.246.924.523,1.197.832s.409.705.409,1.189c0,.641-.208,1.121-.625,1.441-.417.32-1.05.48-1.897.48Z"/>
      <path d="M503.708,333.074c-2.201,0-3.301-1.214-3.301-3.644,0-1.151.277-2.043.833-2.676.555-.632,1.338-.948,2.349-.948.489,0,.914.078,1.276.232s.626.374.793.659l-.738.732c-.149-.226-.34-.4-.571-.523-.231-.123-.481-.184-.75-.184-.642,0-1.156.231-1.543.692-.387.461-.581,1.117-.581,1.966,0,1.852.801,2.777,2.403,2.777.482,0,.958-.1,1.426-.298l.229.876c-.578.226-1.187.338-1.825.338Z"/>
      <path d="M508.953,333.074c-1.742,0-2.613-1.195-2.613-3.584,0-2.456.871-3.684,2.613-3.684s2.612,1.228,2.612,3.684c0,2.389-.871,3.584-2.612,3.584ZM508.953,332.158c1.043,0,1.565-.889,1.565-2.668,0-1.845-.522-2.768-1.565-2.768s-1.566.923-1.566,2.768c0,1.779.522,2.668,1.566,2.668Z"/>
      <path d="M512.643,332.974v-7.068h.997v7.068h-.997ZM513.571,332.974v-.946h.788c.728,0,1.276-.208,1.643-.622.367-.415.551-1.037.551-1.867,0-.899-.184-1.572-.551-2.019s-.915-.669-1.643-.669h-.768l-.12-.946h.887c2.161,0,3.241,1.211,3.241,3.634,0,2.29-1.081,3.435-3.241,3.435h-.788Z"/>
      <path d="M518.726,332.974v-7.068h.997v7.068h-.997ZM518.726,326.852v-.946h4.687v.946h-4.687ZM518.726,329.908v-.945h3.789v.945h-3.789ZM518.726,332.974v-.946h4.687v.946h-4.687Z"/>
      <path d="M500.677,345.207v-7.068h.997v7.068h-.997ZM501.604,345.207v-.946h.788c.728,0,1.276-.208,1.643-.622.367-.415.551-1.037.551-1.867,0-.899-.184-1.572-.551-2.019s-.915-.669-1.643-.669h-.768l-.12-.946h.887c2.161,0,3.241,1.211,3.241,3.634,0,2.29-1.081,3.435-3.241,3.435h-.788Z"/>
      <path d="M506.76,345.207v-7.068h.997v7.068h-.997ZM506.76,339.085v-.946h4.687v.946h-4.687ZM506.76,342.141v-.945h3.789v.945h-3.789ZM506.76,345.207v-.946h4.687v.946h-4.687Z"/>
      <path d="M515.675,345.307c-2.201,0-3.301-1.214-3.301-3.644,0-1.151.277-2.043.833-2.676.555-.632,1.338-.948,2.349-.948.489,0,.914.078,1.276.232s.626.374.793.659l-.738.732c-.149-.226-.34-.4-.571-.523-.231-.123-.481-.184-.75-.184-.642,0-1.156.231-1.543.692-.387.461-.581,1.117-.581,1.966,0,1.852.801,2.777,2.403,2.777.482,0,.958-.1,1.426-.298l.229.876c-.578.226-1.187.338-1.825.338Z"/>
      <path d="M520.92,345.307c-1.742,0-2.613-1.195-2.613-3.584,0-2.456.871-3.684,2.613-3.684s2.612,1.228,2.612,3.684c0,2.389-.871,3.584-2.612,3.584ZM520.92,344.391c1.043,0,1.565-.889,1.565-2.668,0-1.845-.522-2.768-1.565-2.768s-1.566.923-1.566,2.768c0,1.779.522,2.668,1.566,2.668Z"/>
      <path d="M524.61,345.207v-7.068h.997v7.068h-.997ZM525.537,345.207v-.946h.788c.728,0,1.276-.208,1.643-.622.367-.415.551-1.037.551-1.867,0-.899-.184-1.572-.551-2.019s-.915-.669-1.643-.669h-.768l-.12-.946h.887c2.161,0,3.241,1.211,3.241,3.634,0,2.29-1.081,3.435-3.241,3.435h-.788Z"/>
      <path d="M530.692,345.207v-7.068h.997v7.068h-.997ZM530.692,339.085v-.946h4.687v.946h-4.687ZM530.692,342.141v-.945h3.789v.945h-3.789ZM530.692,345.207v-.946h4.687v.946h-4.687Z"/>
      <path d="M536.576,345.207v-7.068h.997v7.068h-.997ZM537.503,342.519v-.946h1.506c.396,0,.704-.104.925-.313.221-.209.332-.503.332-.881,0-.415-.111-.734-.332-.958-.221-.224-.529-.336-.925-.336h-1.486l-.12-.946h1.605c.734,0,1.302.186,1.703.558.4.372.601.899.601,1.583,0,.71-.2,1.261-.601,1.652-.401.392-.968.587-1.703.587h-1.506ZM540.375,345.207l-1.586-3.325h1.097l1.685,3.325h-1.196Z"/>
    </g>
    <rect class="cls-5" x="670.69" y="423.315" width="62.612" height="49.817" rx="12.355" ry="12.355"/>
    <rect class="cls-5" x="599.711" y="422.824" width="62.612" height="49.817" rx="12.355" ry="12.355"/>
    <rect class="cls-5" x="502.199" y="423.315" width="61.591" height="49.817" rx="12.355" ry="12.355"/>
    <line class="cls-2" x1="534.671" y1="416.533" x2="529.104" y2="423.315"/>
    <line class="cls-2" x1="523.845" y1="416.533" x2="529.246" y2="423.315"/>
    <line class="cls-2" x1="636.43" y1="416.041" x2="630.863" y2="422.824"/>
    <line class="cls-2" x1="625.604" y1="416.041" x2="631.006" y2="422.824"/>
    <line class="cls-2" x1="707.409" y1="416.294" x2="701.842" y2="423.077"/>
    <line class="cls-2" x1="696.583" y1="416.294" x2="701.984" y2="423.077"/>
    <text class="cls-44" transform="translate(519.649 451.774)"><tspan x="0" y="0">RAM</tspan></text>
    <text class="cls-44" transform="translate(615.562 453.146)"><tspan x="0" y="0">Int1</tspan></text>
    <text class="cls-44" transform="translate(686.738 453.146)"><tspan x="0" y="0">Int2</tspan></text>
    <line class="cls-2" x1="655.381" y1="415.689" x2="649.814" y2="422.472"/>
    <line class="cls-2" x1="644.555" y1="415.689" x2="649.957" y2="422.472"/>
    <line class="cls-2" x1="715.534" y1="312.866" x2="721.101" y2="306.084"/>
    <line class="cls-2" x1="726.36" y1="312.866" x2="720.959" y2="306.084"/>
    <line class="cls-2" x1="407.395" y1="441.193" x2="442.896" y2="441.193"/>
    <line class="cls-2" x1="531.887" y1="473.132" x2="531.887" y2="496.004"/>
    <line class="cls-2" x1="442.896" y1="441.193" x2="442.896" y2="496.004"/>
    <line class="cls-2" x1="531.887" y1="496.004" x2="442.896" y2="496.004"/>
    <line class="cls-2" x1="631.017" y1="472.641" x2="631.017" y2="496.004"/>
    <line class="cls-2" x1="531.887" y1="496.004" x2="630.863" y2="496.004"/>
    <line class="cls-2" x1="701.842" y1="473.132" x2="701.842" y2="496.004"/>
    <line class="cls-2" x1="631.017" y1="496.004" x2="701.842" y2="496.004"/>
    <line class="cls-2" x1="696.428" y1="479.751" x2="701.996" y2="472.969"/>
    <line class="cls-2" x1="707.255" y1="479.751" x2="701.853" y2="472.969"/>
    <line class="cls-2" x1="625.604" y1="479.337" x2="631.172" y2="472.554"/>
    <line class="cls-2" x1="636.43" y1="479.337" x2="631.029" y2="472.554"/>
    <line class="cls-2" x1="526.474" y1="479.849" x2="532.042" y2="473.066"/>
    <line class="cls-2" x1="537.301" y1="479.849" x2="531.899" y2="473.066"/>
    <text class="cls-39" transform="translate(1100.246 379.072)"><tspan x="0" y="0">Data </tspan><tspan class="cls-55" x="49.097" y="0">	</tspan><tspan x="50.275" y="0">D0-D7</tspan></text>
    <text class="cls-39" transform="translate(1219.663 377.348)"><tspan x="0" y="0">Addr </tspan><tspan class="cls-55" x="49.097" y="0">	</tspan><tspan x="50.275" y="0">A0-A7</tspan></text>
    <line class="cls-2" x1="517.356" y1="416.672" x2="511.788" y2="423.455"/>
    <line class="cls-2" x1="506.53" y1="416.672" x2="511.931" y2="423.455"/>
    <line class="cls-2" x1="753.372" y1="360.181" x2="760.155" y2="365.748"/>
    <line class="cls-2" x1="753.372" y1="371.007" x2="760.155" y2="365.606"/>
    <line class="cls-2" x1="753.628" y1="341.298" x2="760.411" y2="346.865"/>
    <line class="cls-2" x1="753.628" y1="352.124" x2="760.411" y2="346.723"/>
    <line class="cls-2" x1="752.984" y1="329.072" x2="759.767" y2="334.639"/>
    <line class="cls-2" x1="752.984" y1="339.898" x2="759.767" y2="334.497"/>
  </g>
  <g id="_Слой_6" data-name="Слой 6">
    <g>
      <line class="cls-3" x1="1042.599" y1="48.902" x2="1048.599" y2="48.902"/>
      <line class="cls-7" x1="1060.585" y1="48.902" x2="2085.352" y2="48.902"/>
      <line class="cls-3" x1="2091.344" y1="48.902" x2="2097.344" y2="48.902"/>
    </g>
    <g>
      <line class="cls-3" x1="1203.472" y1="48.902" x2="1203.472" y2="54.902"/>
      <line class="cls-6" x1="1203.472" y1="66.729" x2="1203.472" y2="273.703"/>
      <line class="cls-3" x1="1203.472" y1="279.616" x2="1203.472" y2="285.616"/>
    </g>
    <g>
      <line class="cls-3" x1="1661.323" y1="48.902" x2="1661.323" y2="54.902"/>
      <line class="cls-10" x1="1661.323" y1="66.894" x2="1661.323" y2="300.748"/>
      <line class="cls-3" x1="1661.323" y1="306.745" x2="1661.323" y2="312.745"/>
    </g>
    <g>
      <line class="cls-3" x1="1574.77" y1="48.902" x2="1574.77" y2="54.902"/>
      <line class="cls-22" x1="1574.77" y1="66.34" x2="1574.77" y2="289.397"/>
      <line class="cls-3" x1="1574.77" y1="295.116" x2="1574.77" y2="301.116"/>
    </g>
    <g>
      <line class="cls-3" x1="1521.559" y1="48.696" x2="1521.559" y2="54.696"/>
      <line class="cls-12" x1="1521.559" y1="66.663" x2="1521.559" y2="443.616"/>
      <line class="cls-3" x1="1521.559" y1="449.6" x2="1521.559" y2="455.6"/>
    </g>
    <g>
      <line class="cls-3" x1="1774.43" y1="48.902" x2="1774.43" y2="54.902"/>
      <line class="cls-1" x1="1774.43" y1="65.915" x2="1774.43" y2="148.513"/>
      <line class="cls-3" x1="1774.43" y1="154.019" x2="1774.43" y2="160.019"/>
    </g>
    <g>
      <line class="cls-3" x1="779.364" y1="64.622" x2="773.364" y2="64.622"/>
      <line class="cls-13" x1="761.194" y1="64.622" x2="134.408" y2="64.622"/>
      <line class="cls-3" x1="128.323" y1="64.622" x2="122.323" y2="64.622"/>
    </g>
    <g>
      <line class="cls-3" x1="237.747" y1="327.613" x2="237.747" y2="321.613"/>
      <line class="cls-4" x1="237.747" y1="309.661" x2="237.747" y2="76.598"/>
      <line class="cls-3" x1="237.747" y1="70.622" x2="237.747" y2="64.622"/>
    </g>
    <g>
      <line class="cls-3" x1="573.089" y1="64.622" x2="573.089" y2="70.622"/>
      <line class="cls-27" x1="573.089" y1="82.943" x2="573.089" y2="273.914"/>
      <line class="cls-3" x1="573.089" y1="280.075" x2="573.089" y2="286.075"/>
    </g>
    <g>
      <line class="cls-3" x1="1203.472" y1="268.399" x2="1197.472" y2="268.399"/>
      <line class="cls-21" x1="1185.347" y1="268.399" x2="585.152" y2="268.399"/>
      <line class="cls-3" x1="579.089" y1="268.399" x2="573.089" y2="268.399"/>
    </g>
    <g>
      <line class="cls-3" x1="883.749" y1="319.248" x2="883.749" y2="313.248"/>
      <line class="cls-11" x1="883.749" y1="300.299" x2="883.749" y2="280.874"/>
      <line class="cls-3" x1="883.749" y1="274.399" x2="883.749" y2="268.399"/>
    </g>
    <g>
      <line class="cls-3" x1="945.606" y1="268.399" x2="945.606" y2="274.399"/>
      <line class="cls-8" x1="945.606" y1="286.432" x2="945.606" y2="954.297"/>
      <line class="cls-3" x1="945.606" y1="960.313" x2="945.606" y2="966.313"/>
    </g>
    <g>
      <line class="cls-3" x1="1033.512" y1="630.824" x2="1027.512" y2="630.824"/>
      <line class="cls-16" x1="1016.669" y1="630.824" x2="957.028" y2="630.824"/>
      <line class="cls-3" x1="951.606" y1="630.824" x2="945.606" y2="630.824"/>
    </g>
    <line class="cls-3" x1="908.452" y1="432.073" x2="945.606" y2="432.073"/>
    <g>
      <line class="cls-3" x1="354.035" y1="338.038" x2="354.035" y2="332.038"/>
      <line class="cls-14" x1="354.035" y1="319.59" x2="354.035" y2="76.846"/>
      <line class="cls-3" x1="354.035" y1="70.622" x2="354.035" y2="64.622"/>
    </g>
    <g>
      <line class="cls-3" x1="387.071" y1="424.67" x2="387.071" y2="418.67"/>
      <line class="cls-17" x1="387.071" y1="406.668" x2="387.071" y2="76.623"/>
      <line class="cls-3" x1="387.071" y1="70.622" x2="387.071" y2="64.622"/>
    </g>
    <g>
      <line class="cls-3" x1="976.783" y1="432.745" x2="976.783" y2="426.745"/>
      <line class="cls-19" x1="976.783" y1="415.026" x2="976.783" y2="280.258"/>
      <line class="cls-3" x1="976.783" y1="274.399" x2="976.783" y2="268.399"/>
    </g>
    <line class="cls-2" x1="760.155" y1="371.421" x2="760.155" y2="324.266"/>
    <line class="cls-2" x1="760.155" y1="371.098" x2="780.03" y2="360.09"/>
    <line class="cls-2" x1="760.155" y1="324.048" x2="779.811" y2="336.656"/>
    <line class="cls-2" x1="779.811" y1="336.656" x2="779.811" y2="360.464"/>
    <line class="cls-2" x1="779.811" y1="349.586" x2="792.451" y2="349.586"/>
    <text class="cls-31" transform="translate(761.681 337.054)"><tspan x="0" y="0">00</tspan></text>
    <text class="cls-31" transform="translate(761.617 348.154)"><tspan x="0" y="0">01</tspan></text>
    <text class="cls-31" transform="translate(761.987 365.255)"><tspan x="0" y="0">11</tspan></text>
    <text class="cls-31" transform="translate(761.987 356.991)"><tspan x="0" y="0">10</tspan></text>
    <g>
      <line class="cls-3" x1="186.536" y1="221.516" x2="186.536" y2="215.516"/>
      <line class="cls-26" x1="186.536" y1="204.371" x2="186.536" y2="76.195"/>
      <line class="cls-3" x1="186.536" y1="70.622" x2="186.536" y2="64.622"/>
    </g>
    <line class="cls-2" x1="168.032" y1="386.431" x2="168.032" y2="334.979"/>
    <line class="cls-2" x1="168.032" y1="386.08" x2="189.718" y2="374.068"/>
    <line class="cls-2" x1="168.032" y1="334.741" x2="189.479" y2="348.498"/>
    <line class="cls-2" x1="189.479" y1="348.498" x2="189.479" y2="374.476"/>
    <line class="cls-18" x1="945.606" y1="771.651" y2="771.651"/>
    <line class="cls-18" x1="178.875" y1="380.074" x2="178.875" y2="771.651"/>
  </g>
</svg>